<?xml version="1.0" encoding="UTF-8"?>
<svg id="art" xmlns="http://www.w3.org/2000/svg" viewBox="0 0 300 350">
  <defs>
    <style>
      .cls-1 {
        fill: #3b87f7;
        stroke: #3b87f7;
      }

      .cls-1, .cls-2, .cls-3 {
        stroke-linecap: round;
        stroke-linejoin: round;
        stroke-width: 7px;
      }

      .cls-2 {
        fill: none;
        stroke: #000;
      }

      .cls-3 {
        fill: #f7ce46;
        stroke: #f7ce46;
      }
    </style>
  </defs>
  <path class="cls-2" d="M198.31363,144.57897c2.12663,16.36305,3.68293,32.81084,4.30339,49.29982.63996,17.00713,1.94555,38.44878-1.05138,45.22416-2.8037,6.33853-9.53423,11.43881-16.35486,10.20726-5.84591-1.05555-9.99693-6.17936-13.2165-11.17168-7.50819-11.64232-13.00598-24.57743-16.17779-38.06284"/>
  <path class="cls-2" d="M66.28911,223.07882c-9.19013,10.46403-22.32089,27.68632-31.44472,42.35964-2.9563,4.75445-5.88912,10.39013-4.1149,15.70019,1.60917,4.81609,6.81893,7.71302,11.88496,8.05858,5.06604.34556,10.17208-1.05077,14.74382-3.26059,15.44926-7.46764,27.1768-16.70662,37.31784-27.9526"/>
  <path class="cls-2" d="M109.0186,209.72548c3.62766,47.08347,1.78259,84.58635-5.48621,131.24659-2.05845.02123-4.38315-.02194-6.4416-.00071"/>
  <path class="cls-2" d="M126.80984,208.02079c22.71177,43.40908,26.0693,86.50536,9.00648,132.42957l6.13618-.12665"/>
  <path class="cls-3" d="M51.69326,224.88253c40.26141.68219,80.64183-6.55628,118.15938-21.1809-5.64392-35.41424-13.28068-69.62136-26.72617-102.86651-7.45967-18.44469-17.11825-37.57206-34.51223-47.23141-11.52407-6.39963-25.71626-7.79909-38.26833-3.77356-12.55207,4.02553-23.2832,13.41807-28.93579,25.32636-5.17901,10.9106-6.591,23.32281-6.25198,35.39544.74229,26.43295,1.93941,58.46581,16.53512,114.33059Z"/>
  <g>
    <path class="cls-2" d="M111.08215,115.66631l-.16505-.61272"/>
    <path class="cls-2" d="M122.24898,110.0829l-.16505-.61272"/>
    <path class="cls-2" d="M93.87754,126.58885c2.74486,6.77528,8.1413,12.43512,14.77818,15.49951,6.63688,3.06439,14.44486,3.5013,21.38219,1.19649"/>
    <path class="cls-2" d="M97.48908,132.97519c.96506-1.45355,2.13267-2.72839,3.59814-3.66963,2.77605-1.78716,6.91034-1.84673,9.01918.69103,1.84673,2.22799,1.52504,5.5521.54806,8.28049-.47658,1.34632-1.09612,2.64499-1.63227,3.96749"/>
  </g>
  <path class="cls-2" d="M87.0293,277.16258c24.66778-31.66989,49.27033-63.3914,73.61644-95.30957,23.49841-30.80682,48.38264-61.29531,69.92081-93.53202.61191-.91586.49477-2.14624-.28876-2.92039-3.43217-3.39105-7.03662-6.60797-10.46559-10.00225-.73937-.73189-.89434-1.87892-.37318-2.77932,3.77222-6.51725,8.2745-12.91218,13.38144-18.38533"/>
  <path class="cls-2" d="M205.02877,130.52677c-1.39488,4.27914-3.47761,8.33326-6.14387,11.95925-.1353-2.04559-1.14815-3.79932-2.6735-5.16901s-3.59614-2.1142-5.64445-2.02937"/>
  <path class="cls-2" d="M196.90947,143.72806c-.76988-1.3846-1.63774-2.74635-2.836-3.7827s-2.77646-1.72122-4.35158-1.55138-3.0795,1.33448-3.35171,2.89517"/>
  <path class="cls-2" d="M196.1964,145.01122c-4.00223-1.57198-8.62706-1.48637-12.56837.23267"/>
  <path class="cls-2" d="M94.67612,257.98404c1.81691-.9044,4.53209-1.98435,6.20222-4.15454"/>
  <path class="cls-2" d="M94.67612,257.98404c3.65645,1.13747,6.83267,4.03563,6.09483,7.79316"/>
  <path class="cls-2" d="M94.48011,259.75793c3.69008,1.25781,4.67678,5.08653,3.63577,8.84354"/>
  <path class="cls-2" d="M92.13528,262.913c.73347-.38343,1.6703-.1731,2.32844.32874s-.29419.43517-.01977,1.21599c.83404,2.3731,1.08693,4.9481.73051,7.43811"/>
  <path class="cls-2" d="M180.11915,291.0181c15.86969-.89281,31.73938-1.78561,47.60907-2.67842-.17416,16.00102-1.80046,32.33359-5.11111,47.98935-12.93652-.15789-25.97332-.53173-38.90984-.68962-1.13427-14.12747-2.45385-30.49384-3.58812-44.62131Z"/>
  <path class="cls-2" d="M109.5463,58.51916c-2.77465,14.0133-9.94666,27.16267-20.36874,36.94832-1.98596,1.86469-4.39735,3.71928-7.11245,3.49718-2.61954-.21429-4.74234-2.40013-5.68334-4.85419-.94101-2.45406-.93193-5.1546-.91043-7.78279-1.53248,2.49237-2.73605,5.18022-3.98021,7.82833-1.24416,2.64811-2.7279,5.25678-4.92381,7.19028s-5.22128,3.11203-8.08319,2.50381-5.31294-3.32591-5.04517-6.23945c.09465-1.02984.54406-2.06994,1.38927-2.66589s2.11598-.6252,2.85892.09423c.83118.80487.73662,2.23122.09962,3.19709s-1.67714,1.57709-2.68704,2.14168c-3.94842,2.20738-8.77624,4.24493-12.82318,2.22385"/>
  <path class="cls-1" d="M269.45608,80.6079c-1.9062,3.11468-4.38527,5.88095-7.27227,8.11728-2.6095,2.02138-6.30627,1.84166-8.63718-.49551-8.5249-8.54777-17.25805-16.94069-25.49289-25.75716-1.08874-1.16563-1.49455-2.8344-1.02172-4.35771,1.23569-3.98099,3.93862-7.36793,7.60106-9.27453,1.41881-.73861,3.14597-.62366,4.47795.262,10.78334,7.1701,19.2993,14.94876,28.97242,23.30466,2.36985,2.04713,3.00735,5.52989,1.37264,8.20096Z"/>
  <path class="cls-1" d="M230.72821,287.33964c-12.36731.6958-24.73474,1.39154-37.10217,2.08734-.05896,2.96027.10986,5.92242,1.16748,8.66364,1.40503,3.64099,4.8208,6.80823,8.71973,6.64111,1.79126-.07678,3.52161-.83331,5.31262-.75378,2.67346.11871,4.86877,2.02722,7.22717,3.29218,4.14722,2.2243,9.27209,2.33948,13.62805.60345.61829-6.85327.97302-13.72302,1.04712-20.53394Z"/>
  <path class="cls-2" d="M205.3201,295.24936c-2.17,6.82-5.73,13.21-10.39,18.64-2.3,2.68-4.95,5.19-8.24,6.45-1.31.5-2.74.76-4.15.75-2.13-.02-4.23-.66-5.81-2.08-3.19-2.86-3.36-8.01-1.56-11.9,1.3-2.79,3.38-5.09,5.66-7.19"/>
</svg>