<?xml version="1.0" encoding="UTF-8"?>
<svg id="art" xmlns="http://www.w3.org/2000/svg" viewBox="0 0 300 350">
  <defs>
    <style>
      .cls-1 {
        fill: #eb4b50;
        stroke: #eb4b50;
      }

      .cls-1, .cls-2, .cls-3, .cls-4 {
        stroke-linecap: round;
        stroke-linejoin: round;
        stroke-width: 7px;
      }

      .cls-2 {
        stroke: #000;
      }

      .cls-2, .cls-4 {
        fill: none;
      }

      .cls-3 {
        fill: #f7ce46;
        stroke: #f7ce46;
      }

      .cls-4 {
        stroke: #ccc;
      }
    </style>
  </defs>
  <path class="cls-2" d="M182.34963,210.87846c21.62708,13.39491,40.13597,32.72049,49.49416,56.3759,9.35819,23.65541,8.71849,51.77482-4.55373,73.47742,3.70506.29673,6.89461-.14258,10.36866-1.46413"/>
  <path class="cls-2" d="M160.15351,218.31651c.16883,22.90708.17532,46.63122-9.16617,67.54771-2.30793,5.16768-5.61265,10.47915-10.96619,12.31521-6.27665,2.15266-13.08611-1.22144-18.33866-5.27619-11.6536-8.9961-20.17558-21.97223-23.80092-36.24084-3.55473.35649-8.32611,4.62378-8.32611,4.62378"/>
  <path class="cls-2" d="M221.05153,195.70384c2.17883,13.12437,7.36836,25.73966,15.05532,36.59816,6.26146,8.84486,15.80133,17.13256,26.56168,15.84707,6.23526-.7449,11.76863-4.73638,15.43884-9.83177,3.67021-5.09538,5.66386-11.21513,6.9336-17.36502,3.31478-16.0549,1.95666-33.04624-3.86627-48.37077-2.03421.4041-4.67431-.02791-6.55513-.90188-1.00208-.46564-2.00279-1.21382-2.21024-2.29916-.20351-1.06472.44957-2.14631,1.33582-2.7705s1.97017-.88566,3.02523-1.13447"/>
  <path class="cls-2" d="M273.64802,161.64964c-.17693-1.22411.92294-2.39599,2.15173-2.53678s2.44444.57458,3.16567,1.57936c.72122,1.00478,1.01617,2.25567,1.13745,3.48654.1626,1.65035-.02799,3.48637-1.20133,4.65829"/>
  <path class="cls-2" d="M279.60144,161.64964c-.17693-1.22411.92294-2.39599,2.15173-2.53678s2.44444.57458,3.16567,1.57936c.72122,1.00478,1.01617,2.25567,1.13745,3.48654.1626,1.65035-.02799,3.48637-1.20133,4.65829"/>
  <path class="cls-2" d="M285.55486,161.64964c-.17693-1.22411.92294-2.39599,2.15173-2.53678s2.44444.57458,3.16567,1.57936,1.01617,2.25567,1.13745,3.48654c.1626,1.65035-.02799,3.48637-1.20133,4.65829"/>
  <path class="cls-2" d="M118.09105,213.30767c-13.80452-6.80132-27.83853-13.67974-42.98704-16.39-4.92782-.88165-10.42166-1.19411-14.52065,1.67974-2.54392,1.78357-4.21337,4.61371-5.10642,7.58947-.89305,2.97576-1.07443,6.11508-1.13348,9.2214-.23742,12.49093,1.42139,25.01619,4.90213,37.01469"/>
  <path class="cls-2" d="M61.78121,250.78911c.5582-1.66527,2.10189-2.95741,3.83942-3.21377s3.58861.53491,4.60395,1.96802"/>
  <path class="cls-2" d="M66.5251,254.48288c.97956.62728,1.58255,1.80068,1.52227,2.96231-.06028,1.16163-.78148,2.26632-1.8207,2.78884-1.8411.9257-4.18207-.10112-5.40853-1.75714s-1.61138-3.76903-1.96216-5.79967c-.82043,2.07698-1.46702,4.15798-1.32395,6.38654.06943,1.08152.26216,2.17725.77801,3.13035s1.39365,1.75191,2.45445,1.9737c1.94901.40749,3.86112-1.31966,4.26566-3.26928s2.48153-4.6861,1.49494-6.41564Z"/>
  <path class="cls-2" d="M58.96191,261.46541c.34338,1.64149-.93622,3.36739-2.57028,3.74457s-3.40676-.45315-4.38609-1.81451c-.97932-1.36137-1.23017-3.15566-.93932-4.80726.29085-1.6516,1.07927-3.1784,2.02079-4.56618,2.07824-.82909,4.64557-2.21948,6.72381-3.04857"/>
  <path class="cls-3" d="M114.86649,223.60275c41.53974-.54843,82.9582-9.15695,121.27618-25.20636-11.51384-40.67505-27.96349-84.90356-44.30771-119.43246-6.01761-12.71284-15.15626-21.46969-26.37956-27.06627-11.2233-5.59658-24.2583-7.19343-36.65358-5.28521-9.39025,1.4456-18.67996,4.98635-25.63288,11.46119-10.48662,9.76555-14.34456,24.94902-14.08524,39.2762.25932,14.32718,10.36098,70.28093,25.78279,126.25292Z"/>
  <path class="cls-2" d="M181.98184,87.80042c-5.94881,11.97985-13.93762,22.94348-23.5188,32.27655-2.51436,2.44926-5.63634,4.95358-9.11359,4.47442-3.90709-.53839-6.40711-5.55875-4.48241-9.00123-2.46665,4.62757-6.72428,8.01528-11.37599,10.43609-1.81117.94255-4.0247,1.66461-5.84173.73341-1.15554-.5922-1.92252-1.77013-2.30545-3.01083-.38293-1.2407-.42923-2.55653-.47261-3.85425-1.49545,1.52781-3.07375,2.73638-4.8368,3.94558-1.51505,1.03911-3.21396,1.97865-5.05111,1.9844s-3.79014-1.22874-4.00064-3.0538"/>
  <line class="cls-2" x1="186.45205" y1="129.01473" x2="186.75289" y2="130.15169"/>
  <line class="cls-2" x1="199.88015" y1="126.58444" x2="200.181" y2="127.7214"/>
  <path class="cls-2" d="M197.67953,143.48889c-3.0924.17593-2.94275,4.675-2.53421,7.02368.15793.90793.41554,1.82438.96842,2.56167s1.45075,1.26819,2.36786,1.17762c1.00028-.09878,1.81572-.9099,2.21307-1.83317s.45422-1.95179.50555-2.95563c.11339-2.21709.49681-5.23834-2.39738-5.87083-.41504-.0907-.78821-.1224-1.12332-.10334Z"/>
  <g>
    <path class="cls-4" d="M108.664,322.45203c-14.84282,2.34611-29.24789,3.12802-43.21521,2.34611"/>
    <path class="cls-4" d="M74.58812,168.01876c-14.83183,2.43752-44.53395,4.15281-44.53395,4.15281"/>
    <path class="cls-4" d="M74.40778,280.84939c-22.67758,2.34611-44.68635,3.12802-66.02631,2.34611"/>
  </g>
  <path class="cls-1" d="M89.17616,119.27279c29.8833-14.99219,76.88818-25.875,110.51221-27.48639-2.25562-5.1095-4.52124-10.07703-6.7854-14.86023-.82959-1.75281-1.72046-3.42786-2.66211-5.03754-33.60034,3.71118-76.54175,15.44287-103.40625,30.35559.45166,4.42401,1.24243,10.19421,2.34155,17.02856Z"/>
</svg>