<?xml version="1.0" encoding="UTF-8"?>
<svg id="art" xmlns="http://www.w3.org/2000/svg" viewBox="0 0 300 350">
  <defs>
    <style>
      .cls-1 {
        fill: #3b87f7;
      }

      .cls-1, .cls-2, .cls-3, .cls-4, .cls-5 {
        stroke-linecap: round;
        stroke-linejoin: round;
        stroke-width: 7px;
      }

      .cls-1, .cls-4 {
        stroke: #3b87f7;
      }

      .cls-2 {
        stroke: #000;
      }

      .cls-2, .cls-4, .cls-5 {
        fill: none;
      }

      .cls-3 {
        fill: #f7ce46;
        stroke: #f7ce46;
      }

      .cls-5 {
        stroke: #ccc;
      }
    </style>
  </defs>
  <path class="cls-2" d="M201.67612,184.26915c6.27044,15.35462,13.17154,30.45021,20.61976,45.26934.93791,1.86608,1.90701,3.75967,3.36882,5.25132,1.46182,1.49165,3.51818,2.5457,5.593,2.30689,2.51856-.28989,4.51378-2.43048,5.38669-4.81064.87291-2.38016.8367-4.98379.77551-7.51823-.56896-23.56556-2.35847-47.1016-5.35896-70.48228"/>
  <path class="cls-2" d="M89.77458,266.26737c-2.21078-.2227-6.50852-.36037-8.7193-.58307"/>
  <path class="cls-2" d="M131.4421,204.73841c-10.99913,23.35644-25.6533,44.98722-43.26551,63.86351"/>
  <path class="cls-2" d="M88.20985,268.32028c-2.95306,3.19222-11.46626,11.06551-11.46626,11.06551"/>
  <path class="cls-2" d="M82.47673,281.8801s5.97901-12.01873,7.14723-14.55891c.1855,3.07026-1.611,13.52361-1.611,13.52361"/>
  <path class="cls-2" d="M176.80702,190.85767c11.49554,46.9832,14.35879,96.06412,8.40439,144.06531,2.06464,0,4.08206-.00586,6.1467-.00586"/>
  <path class="cls-2" d="M155.0485,201.9873c2.66572,44.67724-2.07298,89.78762-13.96447,132.93568l-4.46052-7.14421"/>
  <path class="cls-3" d="M107.27874,218.37046c35.09997-3.05031,69.42331-14.681,99.14719-33.59668,1.7998-1.14536-2.16952-20.9481-2.54823-23.53998-1.23041-8.42083-2.80599-16.79424-4.7993-25.0686-3.99195-16.57084-9.62044-32.84764-17.65065-47.91446-7.31522-13.72533-17.39494-28.98267-29.76756-38.68786-13.47481-10.56976-38.28922-12.46867-54.43531-8.33292-12.96344,3.32055-25.04267,12.13592-31.15635,24.17755-7.29798,14.37426-1.66411,28.51375,2.77946,42.94039,11.61702,37.71621,26.81373,72.30635,38.43075,110.02255Z"/>
  <path class="cls-2" d="M144.66511,47.3841c1.03638,8.35881.84397,16.86895-.56912,25.17237-.55818,3.2799-1.3335,6.59736-3.08937,9.42335-1.75588,2.82599-4.65268,5.1172-7.9682,5.39399-3.23908.2704-6.39617-1.40939-8.66393-3.73792-2.26775-2.32853-3.79601-5.25993-5.29178-8.14565,1.56274,4.29062,2.17619,9.0861.74771,13.42327-1.42848,4.33717-5.19691,8.06375-9.73678,8.55479-4.53988.49104-9.40251-2.96473-9.65911-7.52387-1.33079,2.03278-2.91547,4.08457-5.19179,4.93402-2.27632.84945-5.36159-.07284-6.01312-2.41351"/>
  <g>
    <path class="cls-2" d="M151.34047,93.98559c.77016,1.61424,2.79743,2.50599,4.50777,1.98285,1.71034-.52314,2.8919-2.39636,2.62727-4.16523"/>
    <path class="cls-2" d="M169.74975,89.75979c.77016,1.61424,2.79743,2.50599,4.50777,1.98285s2.8919-2.39636,2.62727-4.16523"/>
    <path class="cls-2" d="M160.65573,107.64888c.4585,6.45411,8.12115,15.956,14.58592,9.61276,1.89171-1.85623,2.75324-4.56414,2.88561-7.21115.13238-2.647-.39243-5.27788-.91463-7.87624"/>
  </g>
  <path class="cls-1" d="M184.64062,130.09396c-1.72425,0-3.6534.04873-4.85875,1.28168-1.12108,1.14675-1.22644,2.91487-1.26568,4.51809-.24798,10.1319-.49597,20.26379-.74395,30.39569-.05315,2.17173-.05874,4.51023,1.18673,6.29013,1.74445,2.49299,5.19486,2.93205,8.22995,3.14731,5.09464.36134,10.18927.72268,15.28391,1.08402,2.11876.15027,4.45389.23878,6.12933-1.06684,1.8534-1.44431,2.22511-4.05145,2.4555-6.38984.90387-9.17438.46458-18.57009.51492-27.80063.01622-2.97391-.0377-6.0983-1.52429-8.67405-1.789-3.09972-7.02056-2.78557-25.40765-2.78557Z"/>
  <path class="cls-4" d="M212.36428,141.04462c1.92571-.05253,3.87585-.10279,5.75358.32758s3.70618,1.40123,4.77439,3.00437c1.1506,1.72679,1.2778,3.91893,1.32204,5.99347.07164,3.35978.02175,6.72214-.14954,10.07832-.14589,2.85841-.48858,5.96492-2.48643,8.0144-2.39694,2.45888-6.26241,2.51847-9.69465,2.41306"/>
  <path class="cls-2" d="M232.06095,154.28554c-1.0802-1.783-3.79266-3.96528-5.56756-5.05875-1.36727-.84234-2.98817-1.65906-4.51327-1.15605-1.36068.44879-2.22794,1.92895-2.18719,3.36114s.86942,2.76534,1.99249,3.65504"/>
  <path class="cls-2" d="M232.06095,157.87078c-1.0802-1.783-3.79266-3.96528-5.56756-5.05875-1.36727-.84234-2.98817-1.65906-4.51327-1.15605-1.36068.44879-2.22794,1.92895-2.18719,3.36114s.86942,2.76534,1.99249,3.65504"/>
  <path class="cls-2" d="M232.06095,161.45603c-1.0802-1.783-3.79266-3.96528-5.56756-5.05875-1.36727-.84234-2.98817-1.65906-4.51327-1.15605-1.36068.44879-2.22794,1.92895-2.18719,3.36114.02038.7161.23773,1.40743.59037,2.03095"/>
  <path class="cls-2" d="M224.71086,142.56438c.36264,2.50837,1.32899,4.92734,2.79447,6.99514"/>
  <g>
    <path class="cls-5" d="M206.24075,93.31956c.47936-6.19015,1.70463-12.22905,4.75991-18.14753,3.56773-6.91116,7.53502-11.13868,8.56715-19.18473.7436-5.79678.04423-11.97196-3.10593-16.89457"/>
    <path class="cls-5" d="M214.69251,115.78109c-.3102-6.18277,2.1671-12.17838,5.25673-17.5428,3.08963-5.36442,6.84005-10.35837,9.47523-15.96004,2.63518-5.60167,4.0959-12.08766,2.27452-18.0042"/>
  </g>
</svg>