<?xml version="1.0" encoding="UTF-8"?>
<svg id="art" xmlns="http://www.w3.org/2000/svg" viewBox="0 0 300 350">
  <defs>
    <style>
      .cls-1 {
        fill: #3b87f7;
        stroke: #3b87f7;
      }

      .cls-1, .cls-2, .cls-3, .cls-4 {
        stroke-linecap: round;
        stroke-linejoin: round;
        stroke-width: 7px;
      }

      .cls-2 {
        stroke: #000;
      }

      .cls-2, .cls-3 {
        fill: none;
      }

      .cls-3, .cls-4 {
        stroke: #f7ce46;
      }

      .cls-4 {
        fill: #f7ce46;
      }
    </style>
  </defs>
  <path class="cls-4" d="M122.37087,42.24142c-.39506-5.37921-3.80055-10.16607-8.02964-13.51359-11.16499-8.83783-34.16854-9.21369-42.15544,4.40771-3.21066,5.47589-4.62593,12.11416-3.26803,18.31509,1.35775,6.20093,5.66079,11.82952,11.55317,14.19037,3.58928,1.43806,7.54314,1.64784,11.40973,1.63491.43181-.00142.86393-.01352,1.29604-.02122.85855,2.73619,1.93733,5.40334,3.25787,7.94888.81596,1.57298,1.87637,3.23195,3.57882,3.72361,2.02668.58526,4.21847-.83143,5.14799-2.72521.92937-1.8937.8693-4.1144.60573-6.20743-.19678-1.56409-.5125-3.10741-.87976-4.63975,6.0152-2.24341,11.25942-6.55945,14.52417-12.09488,1.96199-3.32676,3.24204-7.16661,2.95934-11.01849Z"/>
  <path class="cls-2" d="M140.08374,208.46436c-2.13147,4.55709-4.31249,9.18975-7.69554,12.91336-3.38305,3.72361-8.21335,6.468-13.23307,6.13234-5.55896-.37171-10.22926-4.35661-13.63362-8.76688-8.4673-10.96922-11.5544-25.31295-11.40541-39.16924.149-13.85629,3.26644-27.48333,6.05862-41.0562,2.79218-13.57286,5.28438-27.40388,4.16354-41.21556"/>
  <path class="cls-2" d="M153.22947,339.79942c3.5,0,5.7.03,9.2.03-4.83-40.29-5.08-81.14-.74-121.5"/>
  <path class="cls-2" d="M180.73947,224.87942c-.83,38.01,2.14,76.11,8.84,113.54,1.87.11,5.89.14,7.76.25"/>
  <path class="cls-2" d="M201.98947,229.91942c.94,23.54,5.38,46.93,13.15,69.16l-1.35,8.42"/>
  <path class="cls-2" d="M215.14377,299.08106c3.12548,3.90518,4.29883,11.98486,3.93981,16.83273"/>
  <path class="cls-1" d="M231.89379,233.21917c-37.55939-1.39753-74.68519-13.08224-106.27461-33.44813,2.8576-30.66713,6.98893-61.26667,14.26795-91.19416,3.38972-13.93673,7.37389-28.03053,15.34844-39.95233,6.71345-10.0365,16.15855-18.22639,27.04473-23.45065,18.54159-8.89807,42.84656-8.03204,57.59017,6.30644,10.53279,10.24336,14.72555,25.60495,14.72188,40.29733-.00367,14.69238-3.71583,29.09118-6.84908,43.44558-7.02545,32.18579-11.6546,65.32047-15.84948,97.99592Z"/>
  <path class="cls-2" d="M159.89466,62.0439c-1.4575,8.06848-2.92108,16.2334-2.39494,24.41557.38518,5.99008,2.72748,12.89914,8.48919,14.582,4.49437,1.3127,9.39046-1.31638,12.15937-5.09206,2.76891-3.77567,3.8782-8.48079,4.92447-13.04455-1.02353,4.26892-2.05192,8.70045-1.19624,13.00616.85567,4.3057,4.15581,8.45755,8.53163,8.80895,3.05223.24511,6.03465-1.4096,8.00662-3.75214,1.97197-2.34254,3.06568-5.29819,3.83485-8.26206.01729,2.28643.67422,4.74748,1.63121,6.82407.95699,2.07659,3.10618,3.78849,5.37221,3.4833,1.29454-.17435,2.43494-.96978,3.31768-1.93259,3.07959-3.35892,3.13095-9.06479.11234-12.47861"/>
  <path class="cls-2" d="M160.49372,118.71566v-.35045"/>
  <path class="cls-2" d="M173.56786,121.27945v-.35045"/>
  <path class="cls-2" d="M156.76203,135.09537c-.59725,6.44138-.39634,12.95638.59668,19.34872.36292,2.33622.86132,4.72996,2.20299,6.67664,1.34167,1.94668,3.72609,3.35069,6.043,2.88002,1.69021-.34336,3.07639-1.61989,3.93489-3.11577.8585-1.49589,1.26041-3.20481,1.60447-4.89488,1.21256-5.95628,1.83977-12.03158,1.86966-18.10996"/>
  <path class="cls-2" d="M101.84058,126.83844c-.81253-1.54818-2.46239-2.54069-4.17939-2.87085-1.717-.33016-3.49834-.06788-5.1828.40083-3.96908,1.10442-11.24283,4.66417-11.84314,9.37663-.73582,5.77617,6.54474,7.72177,9.83579,3.49031-1.21656,1.56419-1.1694,3.97988.10734,5.49536,1.27682,1.51558,3.64966,1.97212,5.3977,1.03852"/>
  <path class="cls-2" d="M97.95015,140.66593c.51644-1.80042.0479-3.76883-.862-5.40599-.9099-1.63716-2.22851-3.00306-3.53168-4.34841-2.85268-2.94502-5.70536-5.89004-8.55804-8.83505"/>
  <path class="cls-2" d="M85.40176,49.02953c-.13068,2.01226.71995,4.06555,2.23538,5.39587.95526.83857,2.23177,1.40339,3.48836,1.21181,1.51915-.23161,2.7028-1.52758,3.24669-2.96482.54389-1.43724.56472-3.01137.57885-4.54801.16244,1.96194,1.21749,3.86987,2.894,4.90181s3.95519,1.08515,5.58935-.01264,2.44362-3.35157,1.73013-5.18638"/>
  <g>
    <path class="cls-3" d="M136.70243,26.81899l2.00485-.86991"/>
    <path class="cls-3" d="M46.84248,29.37663h-1.43483"/>
    <path class="cls-3" d="M48.2773,69.55178l-2.86965,1.14786"/>
  </g>
</svg>