<?xml version="1.0" encoding="UTF-8"?>
<svg id="art" xmlns="http://www.w3.org/2000/svg" viewBox="0 0 300 350">
  <defs>
    <style>
      .cls-1 {
        stroke: #ccc;
      }

      .cls-1, .cls-2, .cls-3, .cls-4, .cls-5 {
        stroke-linecap: round;
        stroke-linejoin: round;
      }

      .cls-1, .cls-2, .cls-4, .cls-5 {
        stroke-width: 6.81484px;
      }

      .cls-1, .cls-3 {
        fill: none;
      }

      .cls-2 {
        fill: #f7ce46;
        stroke: #f7ce46;
      }

      .cls-3 {
        stroke: #000;
        stroke-width: 7px;
      }

      .cls-4 {
        fill: #3b87f7;
        stroke: #3b87f7;
      }

      .cls-5 {
        fill: #eb4b50;
        stroke: #eb4b50;
      }
    </style>
  </defs>
  <path class="cls-3" d="M198.14272,177.29462c2.4189,24.40327,21.09892,46.63453,45.53368,54.19004,7.52711,2.32747,16.0202,3.28339,23.16238.03383,9.34881-4.25355,13.91376-14.43748,16.28604-24.0586,6.72837-27.28784,1.79549-57.02503-13.43569-80.99533-4.21893-6.6396-5.87059-14.94507-2.32208-21.9327"/>
  <path class="cls-3" d="M279.61096,104.08647c-4.46655,1.3203-7.90307,5.57963-8.24923,10.22435"/>
  <path class="cls-3" d="M286.42105,108.08296c-5.09858,2.02294-9.19271,6.4286-10.83698,11.66159"/>
  <path class="cls-3" d="M291.38821,113.9176c-4.45702-.00689-8.86326,2.20602-11.51928,5.78521"/>
  <line class="cls-3" x1="294.44186" y1="121.89939" x2="227.30687" y2="73.20398"/>
  <path class="cls-3" d="M22.29625,106.28208c2.9607.88634,5.51293,3.3089,6.75294,6.40985,1.24001,3.10095,1.14281,6.81781-.25717,9.83442,1.4267,24.83798,3.04093,49.93581,9.496,73.7792,1.47528,5.44933,3.21345,10.88409,6.04331,15.63497,2.82985,4.75089,6.86553,8.8091,11.77462,10.51585,6.16966,2.14502,12.90145.37727,18.89914-2.29803,14.83106-6.61545,31.16231-21.71776,43.263-36.5207"/>
  <path class="cls-3" d="M13.15155,111.70389c4.30159-.17781,8.63498,1.88004,11.21564,5.32612"/>
  <path class="cls-3" d="M9.07733,116.60962c3.86885-.15993,7.76629,1.6909,10.08734,4.79031"/>
  <path class="cls-3" d="M7.20669,122.22154c3.08658-.12759,6.19597,1.34901,8.04771,3.82172"/>
  <line class="cls-3" x1="4.28605" y1="127.98206" x2="64.16264" y2="81.35252"/>
  <g>
    <line class="cls-1" x1="285.29711" y1="238.51214" x2="292.71395" y2="234.98475"/>
    <line class="cls-1" x1="240.79894" y1="182.32319" x2="238.9219" y2="190.34325"/>
  </g>
  <path class="cls-5" d="M204.07288,209.15403s-61.4091.00012-97.42358-4.54762c0,0-.73572-63.69492-.58609-97.02534.06888-15.34293,1.54723-32.2907,12.43852-43.09764,7.17977-7.12416,17.47215-10.20912,27.52019-11.36648,11.23333-1.29388,26.5441-1.06687,36.56116,2.96048,10.01706,4.02735,18.86139,11.46531,23.43587,21.24463,3.8092,8.1433,4.51595,17.36123,4.74982,26.34837.95786,36.80931-6.69589,105.48361-6.69589,105.48361Z"/>
  <path class="cls-3" d="M154.28486,71.64566c-2.29614-8.31598-4.60492-16.70538-5.13506-25.31623-.53015-8.61085.84538-17.57291,5.44437-24.87203,1.76452,5.92512,3.52903,11.85024,5.29355,17.77536,1.93773-6.46952,5.99963-12.28377,11.40758-16.32895-.31722,7.13653-.63444,14.27305-.95166,21.40958,4.73898-.6863,9.47796-1.37261,14.21695-2.05891-.01594,2.57828-.25345,5.15471-.70493,7.69316"/>
  <g>
    <line class="cls-3" x1="146.31776" y1="91.82444" x2="149.05225" y2="95.36203"/>
    <path class="cls-3" d="M167.09169,96.28867c1.10464-1.38715,2.20927-2.7743,3.31391-4.16144"/>
    <polyline class="cls-3" points="143.28726 115.61733 149.46639 119.11271 144.33718 121.69111"/>
    <path class="cls-3" d="M174.79884,116.42925c-2.77179.74541-8.1267,2.82414-8.1267,2.82414l5.58089,2.83512"/>
    <path class="cls-3" d="M149.87043,143.19956c2.62121,1.73283,5.84467,2.53472,8.97226,2.23202,3.12759-.3027,6.13743-1.70787,8.37769-3.91121"/>
  </g>
  <g>
    <path class="cls-1" d="M11.88244,217.00693c2.72221,1.67158,5.44442,3.34316,8.16663,5.01474"/>
    <path class="cls-1" d="M67.92918,166.39608c.1632,2.69976.3264,5.39951.4896,8.09927"/>
  </g>
  <path class="cls-4" d="M180.48318,326.88631c.88845-22.85354,6.45574-45.5151,16.25818-66.17873,22.8187,2.31125,44.8739,9.43132,64.64395,21.05801-9.11305,18.50254-19.46473,37.38387-28.57778,55.88641-17.3289,1.32694-36.09407-4.55043-52.32435-10.76569Z"/>
  <path class="cls-4" d="M103.9728,256.59317c6.56061,20.43004,9.94568,41.87644,9.99654,63.33396-21.07913,7.65798-43.61996,12.77613-65.92929,15.0714-8.33095-20.6753-15.71949-42.21377-17.65151-64.42053,0,0,48.0855-8.27372,73.58426-13.98483Z"/>
  <path class="cls-1" d="M33.33338,257.39056c-1.12744-4.41385-2.25489-8.82771-3.38233-13.24156,6.17395,2.56005,12.65326,4.38277,19.25642,5.41708.33625-11.14102,3.19734-22.26687,8.20308-32.22568,2.89441,6.79972,5.22376,13.83987,6.95616,21.02406,6.73834-5.13646,14.05561-9.81634,21.37403-14.0859-1.07973,4.78977-1.73407,9.67536-1.9528,14.58045"/>
  <path class="cls-1" d="M206.81966,249.74311c1.8358-5.8895,3.6716-11.77899,5.5074-17.66849,4.2149,5.37294,7.86042,11.19225,10.85588,17.32911,9.97567-1.2488,19.83413-3.14996,29.30422-6.525-2.0453,4.36436-4.09061,8.72873-6.13591,13.09309,9.5216-.65772,18.64062.46368,27.93802,2.62049-2.64563,3.17004-5.66985,6.02384-8.98784,8.48137"/>
  <path class="cls-3" d="M40.47172,283.64239c6.57681,14.14492,13.15363,28.28984,19.73044,42.43476,3.16498-16.83497,6.32995-33.66995,9.49493-50.50493,9.06017,13.1854,16.62541,27.39717,22.50444,42.27596,3.88238-15.07177,6.87193-30.45984,8.86119-45.89597,1.87052,3.99992,3.33484,7.99657,5.20536,11.99649"/>
  <path class="cls-3" d="M197.24111,274.63961c-.0328,15.29916-.06559,30.59832-.09839,45.89748,12.10915-13.39492,23.42355-27.50823,33.86389-42.24101-2.02039,16.49652-5.69042,33.13217-10.91115,48.91068,11.25509-12.79867,22.51019-25.59734,33.76528-38.39601"/>
  <line class="cls-3" x1="150.76674" y1="332.74837" x2="150.76674" y2="249.65605"/>
  <path class="cls-2" d="M183.09298,224.58336c4.66469,1.81426,9.96939,5.12743,9.65788,10.12281-.61475,9.85817-14.32572,12.35144-21.18683,13.71239-10.7067,2.12375-27.42091,1.48329-38.12771-.5474-16.8412-3.19417-30.37816-13.26197-17.19881-23.98955,5.49176-4.47012,13.87213-6.37358,20.81497-6.70763,15.6563-.75329,31.42294,1.72412,46.0405,7.40938Z"/>
  <path class="cls-3" d="M107.55109,229.99552c28.51421,8.83459,59.44333,9.73083,88.42127,2.5622"/>
  <path class="cls-3" d="M152.35279,215.91474c.10283-2.99119.84474-5.95884,2.16163-8.64651"/>
</svg>