<?xml version="1.0" encoding="UTF-8"?>
<svg id="art" xmlns="http://www.w3.org/2000/svg" viewBox="0 0 300 350">
  <defs>
    <style>
      .cls-1 {
        fill: #3b87f7;
        stroke: #3b87f7;
      }

      .cls-1, .cls-2, .cls-3, .cls-4, .cls-5 {
        stroke-linecap: round;
        stroke-linejoin: round;
        stroke-width: 7px;
      }

      .cls-2 {
        fill: #ccc;
        stroke: #ccc;
      }

      .cls-3 {
        stroke: #000;
      }

      .cls-3, .cls-4 {
        fill: none;
      }

      .cls-4, .cls-5 {
        stroke: #f7ce46;
      }

      .cls-5 {
        fill: #f7ce46;
      }
    </style>
  </defs>
  <path class="cls-3" d="M291.86744,162.19976c.57038,1.63113.28429,3.66296-1.06512,4.74231,0,0-2.31185,1.85423-4.56658,2.52828"/>
  <path class="cls-3" d="M257.13921,167.57996c-1.33972.63552-3.01616-.13838-3.84702-1.36655s-1.00627-2.77615-1.06939-4.25762"/>
  <path class="cls-4" d="M65.1057,206.38304c2.5371.71801,5.10601,1.44939,7.37861,2.78643s4.25359,3.37038,4.95943,5.91089c1.10377,3.97282-1.05644,8.04547-3.13972,11.60377-1.96058,3.34873-3.92115,6.69746-5.88173,10.04619-1.35314,2.31122-2.83758,4.74789-5.24175,5.92802-2.30406,1.13099-5.09564.87757-7.47077-.09534s-4.4177-2.59529-6.40993-4.21357"/>
  <path class="cls-3" d="M143.6861,220.35219c1.31063,8.63395-2.06435,18.11375-5.50823,22.72875-3.11308,4.17171-7.33706,7.25316-12.01422,8.58915-8.69925,2.48488-18.04275-.89982-26.13927-5.78876-8.09653-4.88894-22.29111-15.74203-22.29111-15.74203"/>
  <path class="cls-3" d="M69.81018,241.30543c2.82167-.11937,5.33756-2.00335,6.90337-4.35373,1.56581-2.35038,2.32999-5.13245,2.99443-7.87737.53664-2.21696,1.01205-4.61546.13791-6.7223-.91319-2.20095-3.34847-3.66631-5.72079-3.44234-2.37233.22398-4.49032,2.11923-4.97544,4.4522"/>
  <path class="cls-3" d="M77.14312,227.72679c-3.65534.17892-7.31069.35784-10.96603.53676"/>
  <path class="cls-3" d="M74.47748,231.85192c-3.42624.35886-6.85247.71772-10.27871,1.07658"/>
  <rect class="cls-5" x="5.23916" y="190.62101" width="61.31832" height="42.64872" rx="10.37849" ry="10.37849" transform="translate(240.39896 278.19504) rotate(117.56341)"/>
  <line class="cls-3" x1="36.46143" y1="210.76128" x2="30.97927" y2="207.89973"/>
  <path class="cls-3" d="M57.04058,195.4014c-12.3703,1.52481-20.94902,6.73552-25.00206,18.29114-2.46504,7.02807-2.20649,16.62237,1.37642,24.62531"/>
  <path class="cls-3" d="M162.08815,207.97479c18.47839,14.93211,29.41272,37.60624,34.49203,60.81442,5.0793,23.20818,4.83881,47.20893,4.4786,70.9637,2.9062.10941,5.95202-1.26009,7.81314-3.49486"/>
  <path class="cls-3" d="M193.6961,201.2824c3.86771,19.95826.7458,41.96905-11.86833,57.91191-12.61414,15.94287-35.66086,24.09218-54.41857,16.25384-1.25295,3.57017-2.80344,7.65433-4.0564,11.2245"/>
  <path class="cls-3" d="M210.92981,198.17091c5.41611,13.83502,13.60154,26.57944,23.93053,37.25904,3.40422,3.51977,7.11902,6.87173,11.57603,8.89968,4.45701,2.02794,9.78979,2.58774,14.22528.51316,7.85594-3.6744,10.13175-13.67411,10.59606-22.33445.7528-14.04124-1.11225-33.6492-4.76039-47.22911"/>
  <path class="cls-2" d="M258.80087,139.04654s.57189,22.35634.75634,29.37311c.05473,2.08204.24499,4.42939,1.84606,5.76147,1.3666,1.137,3.31696,1.1459,5.09405,1.0981,4.49753-.12098,8.99506-.24197,13.49259-.36295,1.60688-.04323,3.41408-.17689,4.46146-1.39629.92293-1.07451.935-2.63363.89892-4.04963-.21188-8.31662.65656-22.1072.44468-30.42382"/>
  <path class="cls-3" d="M252.2228,161.95579c-.06657-1.56235-.01078-3.21738.8117-4.54737,1.3203-2.135,4.10339-2.72981,6.58154-3.13002"/>
  <path class="cls-3" d="M291.86744,162.19976c-1.07593-3.07688-4.39643-4.65772-7.40261-5.91775"/>
  <path class="cls-3" d="M280.29141,147.39791c4.61001.06848,9.13018,2.42876,11.82106,6.17257,1.03645,1.442,1.82935,3.27996,1.27643,4.96753"/>
  <line class="cls-3" x1="256.78788" y1="139.04654" x2="287.58072" y2="139.04654"/>
  <line class="cls-3" x1="259.61604" y1="135.75077" x2="284.75256" y2="135.75077"/>
  <path class="cls-3" d="M264.70204,129.86503c-.38447,1.29286.44312,2.81898,1.7364,3.20202"/>
  <path class="cls-1" d="M224.21925,194.50335c-29.82227,18.06781-66.32724,28.41217-101.16981,29.75715-14.59123-43.32028-24.94858-72.86188-32.77566-110.66196-4.10377-19.81869-1.48803-42.81342,12.62296-57.32208,12.98682-13.35281,34.72887-15.63518,51.92569-8.47806,17.19682,7.15712,30.11166,22.2676,38.35342,38.97174,8.24177,16.70414,21.5367,64.62618,31.0434,107.73321Z"/>
  <path class="cls-3" d="M164.49003,53.26268c-9.68262,14.35787-21.19198,27.4824-34.16264,38.95687"/>
  <path class="cls-3" d="M134.28394,70.16183c-6.59936,9.86865-14.3101,18.9935-22.93961,27.14662"/>
  <path class="cls-3" d="M111.42768,83.49543c-3.40021,3.69866-6.80043,7.39731-10.20064,11.09597"/>
  <path class="cls-3" d="M109.29178,176.76882c35.87479-1.59832,71.40784-10.51587,103.78608-26.04664"/>
  <path class="cls-3" d="M126.65481,187.95035c20.25394,1.18254,40.88837.30272,60.83891-1.89931,1.24778-7.67448,2.71566-15.61793,4.731-23.12746,4.26236,6.42192,9.68824,12.06905,15.93478,16.58453,3.82999-2.85145,7.42405-6.08803,9.91926-10.15908"/>
  <g>
    <path class="cls-3" d="M172.8265,100.74213l-.11044-.50641"/>
    <path class="cls-3" d="M182.25387,98.59967l-.11044-.50641"/>
    <path class="cls-3" d="M166.72597,118.41271c.64721,4.97209,4.46126,9.38579,9.28697,10.74708s10.38408-.40854,13.53427-4.30942"/>
    <path class="cls-3" d="M164.20055,118.01009l4.16585-.84595"/>
  </g>
  <path class="cls-3" d="M78.27129,228.7368c-.16662-3.07615-3.12-5.72233-6.19592-5.55145"/>
</svg>