<?xml version="1.0" encoding="UTF-8"?>
<svg id="art" xmlns="http://www.w3.org/2000/svg" viewBox="0 0 300 350">
  <defs>
    <style>
      .cls-1 {
        fill: #eb4b50;
        stroke: #eb4b50;
      }

      .cls-1, .cls-2, .cls-3 {
        stroke-linecap: round;
        stroke-linejoin: round;
        stroke-width: 7px;
      }

      .cls-2 {
        fill: none;
        stroke: #000;
      }

      .cls-3 {
        fill: #f7ce46;
        stroke: #f7ce46;
      }
    </style>
  </defs>
  <path class="cls-3" d="M93.23093,330.4109c-10.53015-2.93745-22.4005-10.35268-30.21677-17.99588-2.94937-2.88407-5.54904-6.45945-5.92517-10.56739-.37612-4.10794,2.19058-8.67827,6.26389-9.33001-1.08782-6.43365,1.80849-13.37427,7.14679-17.12632,5.33829-3.75204,12.84966-4.1265,18.53466-.92399,3.7939-6.5616,9.53221-12.22389,16.67662-14.75482,7.14441-2.53094,15.73211-1.51429,21.36797,3.55377,6.47215-5.3648,14.02415-9.90917,22.38249-10.8081,8.35833-.89893,17.58052,2.5876,21.56379,9.99053,6.67237-2.01224,13.37557-3.31497,20.26743-2.27968,6.89186,1.0353,13.68685,5.22289,16.04985,11.77925,3.90789-.45747,8.14579-.6797,12.06881-.37831s7.87727,1.41553,10.99447,3.81636,5.28363,6.21866,5.08093,10.14802c6.35099,1.14333,9.664,7.90084,8.51367,14.25057-1.15034,6.34973-5.78773,11.4998-10.79394,15.57168-11.95661,9.72507-26.89286,15.17797-42.02356,18.11046-24.57017,4.76196-59.9937,7.53255-97.95192-3.05613Z"/>
  <path class="cls-2" d="M120.13104,181.11746s27.04342,54.06126,25.80962,68.24161c-1.77092,20.35372-12.29777,41.46311-25.00812,65.68446"/>
  <path class="cls-2" d="M158.46905,178.77743c-4.25897,44.45722-1.22008,89.60523,8.95828,133.09068"/>
  <path class="cls-2" d="M180.97193,187.86719c9.7105,14.95396,16.77784,31.61903,20.77774,48.99475.5257,2.28364.9142,4.95048-.59961,6.73927-1.33013,1.57175-3.74674,1.83367-5.69279,1.16096-1.94605-.67271-3.52755-2.0945-5.02878-3.50374-4.5365-4.25851-8.87206-8.73045-12.99078-13.39399"/>
  <path class="cls-2" d="M93.65444,187.33774c-4.44101,7.65348-9.75341,18.82474-11.94089,27.39873-.8354,3.27441-1.14723,7.49502,1.71711,9.28812,1.95344,1.22287,4.6285.60805,6.42483-.83575s2.91283-3.54693,3.98045-5.58936c2.91754-5.58146,5.83508-11.16291,8.75262-16.74437"/>
  <path class="cls-1" d="M197.88427,192.7913c-35.98843.27377-113.81065-5.55116-113.81065-5.55116,0,0-3.78653-50.05308-3.92112-82.581-.05034-12.16513-.23845-25.38607,1.92621-37.37346,2.16467-11.98739,7.38131-23.84026,16.78612-32.026,10.34287-9.0022,24.77049-12.70844,38.75197-12.90351,11.50395-.1605,23.46521,2.04323,32.64931,8.67448,9.95821,7.19018,15.53652,18.79736,17.9696,30.50415,2.43308,11.70679,3.19029,23.63813,4.09074,35.54284,2.86939,37.93563,5.5578,95.71367,5.5578,95.71367Z"/>
  <line class="cls-2" x1="102.81327" y1="90.59096" x2="102.81327" y2="88.7505"/>
  <line class="cls-2" x1="116.4939" y1="92.21481" x2="116.4939" y2="90.37434"/>
  <path class="cls-2" d="M110.99034,117.89236c3.10951.55193,6.45405-.42924,8.77257-2.57357"/>
  <path class="cls-2" d="M109.54926,47.29484c8.07663,11.57397,16.47231,23.45856,28.40329,30.99781,7.09328,4.48228,15.30716,7.33407,21.44088,13.05971,2.00816-7.60693-1.98158-15.37459-5.83795-22.23218,7.22719,2.00507,13.01937,7.35398,18.01977,12.94401s9.60823,11.68171,15.75286,15.98241c2.69725-9.11183.7953-19.46195-4.96515-27.01958,5.84596,2.28459,11.20704,5.80139,15.63098,10.25373-1.68124-9.99917-7.51619-19.2339-15.82494-25.04549"/>
  <path class="cls-2" d="M102.58855,200.85512c8.24987-15.78257,16.49974-31.56514,24.74961-47.34771,2.54534-4.86941,5.17155-9.8456,9.23111-13.54828,4.05956-3.70267,9.70438-6.43304,15.14468-5.66295"/>
  <path class="cls-2" d="M136.04441,141.67489c4.43243-2.00348,9.93261-2.75383,14.30075-.6138"/>
  <path class="cls-2" d="M146.74895,145.81515c-3.71127-2.5579-8.52775-3.44809-12.90813-2.38571.80347-3.9095,1.66641-9.25397,3.9428-12.53235"/>
  <path class="cls-2" d="M177.4377,227.86445c-5.04626-5.71376-9.76703-11.71514-14.13312-17.96396-3.96504-5.67484-7.6359-11.55411-10.996-17.60675-3.03769-5.47187-6.3507-9.91563-13.1352-10.62746"/>
  <path class="cls-2" d="M130.13096,188.33444c5.78455.7703,11.63426,1.05065,17.46596.83707-5.12422,1.38282-10.1779,3.37392-15.48428,3.48383"/>
  <path class="cls-2" d="M150.54014,192.50117c-4.72561,2.55061-9.83329,4.39188-15.09939,5.44319"/>
  <path class="cls-2" d="M74.54779,304.08044c48.86549,18.0593,105.25779,16.71723,152.9478-3.63997"/>
  <path class="cls-2" d="M95.61625,287.19788c2.85862,6.44474,7.60319,12.03943,13.49446,15.91233"/>
  <path class="cls-2" d="M200.98553,283.93989c-4.17761,7.67915-10.40484,14.23097-17.862,18.79304"/>
  <path class="cls-2" d="M132.10756,275.72025c1.72977,8.71128,5.11054,17.09176,9.9097,24.56482"/>
  <path class="cls-2" d="M169.23681,272.60531c-.66776,10.80213-5.13378,21.33193-12.43567,29.32031"/>
</svg>