<?xml version="1.0" encoding="UTF-8"?>
<svg id="art" xmlns="http://www.w3.org/2000/svg" viewBox="0 0 300 350">
  <defs>
    <style>
      .cls-1 {
        fill: #3b87f7;
        stroke: #3b87f7;
      }

      .cls-1, .cls-2, .cls-3, .cls-4 {
        stroke-linecap: round;
        stroke-linejoin: round;
        stroke-width: 7px;
      }

      .cls-2 {
        fill: #ccc;
        stroke: #ccc;
      }

      .cls-3 {
        stroke: #000;
      }

      .cls-3, .cls-4 {
        fill: none;
      }

      .cls-4 {
        stroke: #f7ce46;
      }

      .cls-5 {
        stroke-width: 0px;
      }
    </style>
  </defs>
  <path class="cls-4" d="M223.58761,220.65863c.65836-12.97414-.12974-26.02115-2.34503-38.82171"/>
  <path class="cls-4" d="M221.24258,181.83692c-.42292-5.39749-4.26447-13.27129-7.65106-17.49536-1.69109-2.10928-3.62729-4.0844-6.00757-5.36624s-5.26337-1.80813-7.82893-.95562c-3.72694,1.23843-6.12969,5.55549-5.21818,9.37555.91151,3.82007,5.07617,6.57344,8.8892,7.51391,5.14826,1.26981,13.27521,4.19035,17.81653,6.92775Z"/>
  <path class="cls-4" d="M221.24258,181.83692c-.02423-4.805.07903-10.92437,1.13946-15.61096,1.06043-4.68659,3.1243-9.24674,6.53419-12.63218,1.97125-1.95711,4.79826-3.55599,7.4391-2.69454,2.61231.85214,3.9974,3.93416,3.67033,6.6624-.32707,2.72824-1.91845,6.4101-3.77996,8.43125-4.7515,5.159-10.10712,9.61542-15.00312,15.84402Z"/>
  <path class="cls-2" d="M236.05192,230.67309c-2.2444-2.78289-5.50734-5.12607-7.87402-7.27675-2.24591-2.04089-5.60617-2.25098-8.09497-.51456,0,0-8.44605,5.89274-8.45278,5.89743-2.96296,2.06723-.65535,7.23448,1.21138,9.03013,1.76056,1.69352,4.11359,2.65511,6.49902,3.18171,3.5625.78645,7.37592.65987,10.75542-.7145,3.71158-1.50942,9.18068-5.60503,5.95595-9.60347Z"/>
  <path class="cls-3" d="M75.59629,326.97707l5.39-3.88c15.3,3.9,30.97,5.42,46.75,4.74-.64-3.72-1.29-7.44-1.93-11.16-3.16-18.22-6.32-36.44-9.46-54.67"/>
  <path class="cls-3" d="M102.20629,317.49707l4.53-2.86c6.08.6,12.51,1.33,19.07,2.04,12.55,1.37,25.53,2.68,37.23,2.9-2.85-9.35-5.69-18.71-8.53-28.07-3.79-12.43-7.57-24.86-11.35-37.3"/>
  <path class="cls-3" d="M206.76629,230.76707c-6.94,20.19-19.98,38.22-36.89,51.25-2.57,1.99-5.23,3.86-7.97,5.6-2.31,1.47-4.81,2.87-7.4,3.89-4.25,1.69-8.73,2.39-12.94.83-11.45-4.26-12.28-22.09-10.9-34.28"/>
  <path class="cls-3" d="M240.44178,235.87629c-2.31,11.24-6.79901,22.10756-13.23655,31.61784-8.58792,12.68708-22.4104,23.6063-39.38893,23.53293-6.85111-.0296-13.01-4.18-17.94-9.01-2.71-2.65-5.04-5.73-6.89-9.02-3.97-7.1-5.97-15.07-7.02-23.17"/>
  <path class="cls-3" d="M221.67858,230.43048c-4.89309-.25026-10.01561.58254-14.9087.33229,2.76998,5.12166,7.43845,9.117,13.06319,10.6225"/>
  <path class="cls-3" d="M216.44133,246.13549c-1.23918-.22192-2.12379-1.2881-2.89516-2.28299-2.87087-3.7028-5.83445-7.61004-6.62046-12.229"/>
  <path class="cls-3" d="M231.22839,242.48477c2.83131-1.4561,5.68846-2.92913,8.13306-4.96885.51828-.43244,1.05391-.96515,1.08032-1.63963.03459-.88327-.80809-1.53576-1.60959-1.90855-2.92225-1.35919-6.30142-1.13843-9.51469-.88974"/>
  <path class="cls-3" d="M218.61731,238.94706c5.60262,1.81682,11.91347,1.3356,17.17584-1.3097-3.27271,4.6957-9.87909,7.90224-15.52361,6.95375"/>
  <path class="cls-1" d="M81.37135,269.73445c34.93747-6.39176,73.53187-17.44992,105.56636-32.7885-8.62246-32.16123-16.69504-67.05517-25.31749-99.2164-3.2005-11.93767-6.46142-24.02498-12.57748-34.76485-6.11606-10.73987-15.51061-20.16057-27.36804-23.64659-13.75816-4.04483-29.18721.65245-39.96737,10.10949-10.78016,9.45704-17.26231,23.10271-20.20003,37.13899-2.93773,14.03629-3.3381,30.13184-1.49139,44.35286,4.41273,33.98125,10.58478,66.28517,21.35545,98.815Z"/>
  <path class="cls-3" d="M95.50388,110.92964c5.18361,8.94219,11.96151,16.95711,19.9186,23.55388,2.63459,2.18419,5.46824,4.25098,8.73974,5.25549,5.55495,1.70565,14.23617-.541,13.20739-7.81606-.45574-3.2225-3.16416-9.45418-9.6099-16.73944,4.74168,4.84041,9.84834,9.32322,15.2623,13.3978,2.37015,1.78379,5.26713,3.57905,8.11283,2.74154,3.82471-1.12565,4.79658-6.55295,2.79231-9.99946-2.00427-3.44651-5.82595-5.33734-9.43262-7.0366,3.42647,2.09671,7.06076,4.25782,11.07638,4.36599,4.01562.10817,8.40817-2.68374,8.53312-6.69888.08855-2.84521-1.88189-5.30734-3.87558-7.33915-5.08697-5.18422-10.8457-9.97775-10.8457-9.97775"/>
  <g>
    <path class="cls-3" d="M149.23619,159.27134v-.21778"/>
    <path class="cls-3" d="M158.26346,159.27134v-.21778"/>
    <g>
      <path class="cls-5" d="M159.01396,175.80061c.06018,4.28795-.1655,8.5759-.64695,12.84881-.1655,1.51959-.37614,3.06927-.76732,4.54372-1.70013-3.67109-4.19768-6.96604-7.34218-9.50872-1.94086-1.56473-4.10741-2.84359-6.40936-3.79145.21064-2.42232.46641-4.82959.67704-7.19172,4.81454,1.02309,9.65917,2.06123,14.48876,3.09936Z"/>
      <g>
        <path class="cls-3" d="M162.56469,176.55288c-1.18859-.25577-2.36213-.4965-3.55072-.75227-4.82959-1.03814-9.67422-2.07627-14.48876-3.09936-.21064,2.36213-.46641,4.7694-.67704,7.19172-.39118,4.303-.67704,8.63608-.52659,12.83376.09027,2.58782.37614,5.44645,2.28691,7.20677,2.60286,2.39223,7.10145,1.29391,9.4034-1.38418,1.324-1.51959,2.09132-3.38522,2.58782-5.35618.39118-1.47445.60182-3.02413.76732-4.54372.48145-4.27291.70714-8.56086.64695-12.84881"/>
        <path class="cls-3" d="M143.84816,179.89297c2.30195.94786,4.4685,2.22673,6.40936,3.79145,3.1445,2.54268,5.64204,5.83763,7.34218,9.50872"/>
      </g>
    </g>
  </g>
</svg>