<?xml version="1.0" encoding="UTF-8"?>
<svg id="art" xmlns="http://www.w3.org/2000/svg" viewBox="0 0 300 350">
  <defs>
    <style>
      .cls-1 {
        fill: #3b87f7;
        stroke: #3b87f7;
      }

      .cls-1, .cls-2, .cls-3, .cls-4 {
        stroke-linecap: round;
        stroke-linejoin: round;
        stroke-width: 7px;
      }

      .cls-2 {
        fill: #ccc;
        stroke: #ccc;
      }

      .cls-3 {
        fill: none;
        stroke: #000;
      }

      .cls-4 {
        fill: #f7ce46;
        stroke: #f7ce46;
      }
    </style>
  </defs>
  <path class="cls-3" d="M199.53934,249.21905c3.7807,5.79731,7.59295,11.6345,12.40929,16.60495,2.49698,2.57688,5.25093,4.90463,8.20774,6.9375,1.28298.88208,2.78552,1.74538,4.30859,1.42232,1.35167-.2867,2.36565-1.48232,2.81689-2.78831.45125-1.30599.43594-2.72112.39762-4.10234-.39931-14.39307-4.60503-42.51853-8.85151-56.2767"/>
  <g>
    <path class="cls-4" d="M116.40664,152.0739c-9.84073-21.93323-19.69077-43.88557-30.96745-65.11627-1.66631-3.13718-3.51624-6.41801-6.60818-8.16682-3.7729-2.13396-8.47365-1.47608-12.66576-.3739-3.82979,1.00692-7.75468,2.44957-10.36536,5.42708-3.13659,3.57732-3.78863,8.80949-2.85707,13.47507.93156,4.66557,3.24418,8.92092,5.49767,13.11105,14.80586,27.52994,28.35174,55.73747,40.58105,84.50473"/>
    <path class="cls-3" d="M55.49616,104.68618c9.43-7.05,20.74-11.58,32.43-12.98"/>
    <path class="cls-3" d="M94.53616,104.80618c-11.7,1.16-23.13,5.02-33.15,11.16"/>
  </g>
  <path class="cls-3" d="M195.33776,216.8294c-1.72445,40.31507-2.51385,80.67013-2.36735,121.0218,2.04442.09798,10.07811-.70587,10.07811-.70587"/>
  <path class="cls-3" d="M163.85135,221.85343c3.6248,38.55323,7.98645,77.03717,13.08176,115.42374-3.69332-.24193-7.67817-1.79624-10.29711-4.41163"/>
  <path class="cls-1" d="M128.97886,208.27521c34.00249,4.48041,68.3103,6.64229,102.60625,6.46564,4.71567-34.56028,8.24051-60.19123,12.95619-94.75152,2.65188-19.4351,4.99937-40.545-4.86271-57.50067-9.50241-16.3373-28.85988-25.08232-47.73296-26.08749-16.21922-.86383-33.60184,3.91159-44.07495,16.32622-9.62195,11.40569-11.94595,27.08472-13.89366,41.87925-5.33666,40.53665-8.67332,72.07329-14.00998,112.60994,2.27705.20708,6.74496.75993,9.01181,1.05863Z"/>
  <path class="cls-3" d="M191.79045,130.9504c-5.37388,8.86433-15.12752,14.92225-25.45546,15.81021"/>
  <path class="cls-3" d="M187.23616,136.78618c1.04.99,2.11,1.95,3.13,2.95,2.28,2.24,4.4,4.9,4.9,8.06s-1.14,6.84-4.23,7.66c-2.62.69-5.3-.78-7.48-2.39-3.19-2.36-6.03-5.18-8.43-8.35"/>
  <line class="cls-3" x1="165.91973" y1="116.64691" x2="165.96983" y2="115.72897"/>
  <line class="cls-3" x1="179.00642" y1="115.68679" x2="179.05652" y2="114.76886"/>
  <path class="cls-3" d="M160.34031,51.15447c1.932,7.84456,3.88298,15.74418,7.2613,23.08289,3.37832,7.33871,8.31307,14.16566,15.11673,18.52227,2.16789,1.38818,4.58231,2.53349,7.15274,2.67364,2.57044.14015,5.31809-.89248,6.69464-3.06777,1.38088-2.18213,1.1583-4.98835.70748-7.53104-1.11411-6.28376-3.33451-12.36978-6.5286-17.89468,2.55426,6.74348,6.24335,13.05553,10.86529,18.59055,2.15307,2.57843,4.62452,5.06756,7.78381,6.209,3.15929,1.14144,7.1508.57555,9.16579-2.11217,1.89216-2.52389,1.56796-6.05098.78549-9.1068-.59133-2.30935-2.14631-5.05603-4.49912-4.6725-2.01128.32785-2.87588,2.80441-2.74902,4.83829.24059,3.85734,2.51823,7.29622,5.13356,10.14175,2.33615,2.54177,5.09428,4.83166,8.3853,5.87445,3.29101,1.04279,7.19215.63843,9.74523-1.68534,2.55308-2.32378,3.18799-6.72832.86662-9.28359"/>
  <path class="cls-2" d="M152.17768,143.82094c-27.831-2.20078-55.88251-1.60347-83.59459,1.78003,10.36698,35.74545,17.47347,72.86403,21.84448,109.8249,27.0578-2.76527,54.5269-3.74838,81.64537-1.66038-2.41767-37.88808-10.50577-89.28497-19.89526-109.94455Z"/>
  <path class="cls-3" d="M165.74305,198.32356c3.07289,1.47,8.10181,4.20874,9.24886,12.71205,8.12864,12.46441,16.41879,25.71903,24.54743,38.18344"/>
  <path class="cls-3" d="M173.2977,208.44877c-6.64305-.57812-13.09448-3.19724-18.26059-7.41336"/>
  <path class="cls-3" d="M173.63451,210.55713c-5.81862,1.04368-11.94592.29642-17.34316-2.11512"/>
  <path class="cls-3" d="M174.74953,214.62993c-4.73718,1.9092-10.05139,2.35809-15.0417,1.27057"/>
</svg>