<?xml version="1.0" encoding="UTF-8"?>
<svg id="art" xmlns="http://www.w3.org/2000/svg" viewBox="0 0 300 350">
  <defs>
    <style>
      .cls-1 {
        fill: #3b87f7;
        stroke: #3b87f7;
      }

      .cls-1, .cls-2, .cls-3 {
        stroke-linecap: round;
        stroke-linejoin: round;
        stroke-width: 7px;
      }

      .cls-2 {
        fill: #eb4b50;
        stroke: #eb4b50;
      }

      .cls-3 {
        fill: none;
        stroke: #000;
      }
    </style>
  </defs>
  <path class="cls-2" d="M224.74183,110.44295c10.18872.15048,22.38473-.34662,32.68207-.19429,1.77033.02619,3.01936,1.75459,2.48259,3.44178-6.89014,21.6569-15.65702,42.97491-27.06485,62.61097-.8719,1.50079-2.53402,2.35844-4.26386,2.21619-8.03051-.6604-17.54623-.88583-25.76564-1.56456-1.87036-.15445-3.08943-2.01997-2.47671-3.79386,7.0774-20.48986,14.42375-42.0614,20.41236-59.88724.57692-1.71729,2.18264-2.85575,3.99405-2.829Z"/>
  <path class="cls-3" d="M99.21505,182.29341c26.78441,48.52171,41.19722,103.80815,41.5104,159.23074l6.62209-2.04279"/>
  <path class="cls-3" d="M136.23533,191.58431c6.74921,26.79615-.34759,56.69436-18.41928,77.59888-18.07169,20.90453-46.6295,32.24997-74.11996,29.44637-.6979,2.77545-3.67819,8.11256-3.67819,8.11256"/>
  <path class="cls-3" d="M115.06618,194.80166c7.57544,13.906,16.56285,27.04231,26.77923,39.14146,2.83628,3.35897,6.15591,6.85445,10.51422,7.43091,3.71946.49196,7.44642-1.343,10.10598-3.98934s4.43246-6.03421,6.12579-9.3822c11.40256-22.54475,21.11345-45.94486,29.0241-69.93873,1.1158-3.38435-1.21199-7.69764-1.91995-11.1902,7.02922-2.58271,14.06179-3.9601,20.92854-3.23527"/>
  <path class="cls-3" d="M157.95298,199.52864c11.83473,14.77476,26.06493,27.62642,41.96505,37.89971,4.1307,2.6689,8.70128,5.25225,13.61296,5.00502,6.12207-.30815,11.18602-4.97307,14.53594-10.10656,5.64838-8.65569,7.93415-19.01318,10.11615-29.11585,3.22132-14.9147,6.44263-29.8294,9.66395-44.7441-2.26867-4.26229-5.74234-8.19864-9.67982-10.99333"/>
  <path class="cls-1" d="M60.69753,180.05664c33.66837,14.07498,69.68155,23.87399,106.54779,28.99113,12.15776-42.23684,21.19615-81.30898,24.02896-97.78062,3.09319-17.98568,5.62467-36.37801,2.46046-54.36214-3.35144-19.04828-16.22125-27.85885-34.87529-28.19741-12.73555-.23114-25.95792.27953-37.32686,5.27027-11.7467,5.15657-20.35245,14.68168-25.92693,25.06167-5.57448,10.37999-7.9474,23.30988-11.19303,34.41797-11.82827,40.48204-23.7151,86.59913-23.7151,86.59913Z"/>
  <path class="cls-3" d="M135.45708,45.95999c-.69117,15.88458,3.34991,31.94555,11.47627,45.61157,1.36894,2.30213,3.26766,4.7863,5.94469,4.87171,2.82242.09005,4.93197-2.54852,6.17601-5.08358,2.78703-5.67932,3.71391-12.25307,2.60583-18.48159-.13887,4.53879-.24076,9.26915,1.66952,13.38871,1.91029,4.11955,6.49329,7.38249,10.88418,6.22494,3.33985-.88046,5.67293-4.06826,6.52217-7.41618.84924-3.34793.47836-6.87023.07454-10.3005-1.08347,3.11679.29281,6.90304,3.1248,8.59658,2.83199,1.69354,6.81877,1.11443,9.05189-1.31487,2.23311-2.42929,2.47527-6.45063.54981-9.13035"/>
  <path class="cls-3" d="M163.87054,110.63149l.39354-1.29011"/>
  <path class="cls-3" d="M177.4823,112.50365c.13118-.43004.26236-.86007.39354-1.29011"/>
  <path class="cls-3" d="M158.64925,126.81875c1.0089,4.47319,5.61366,7.83243,10.18129,7.4274"/>
  <path class="cls-3" d="M197.46024,153.16544c6.29925-2.56192,12.60504-3.91862,18.76821-3.17375"/>
  <path class="cls-3" d="M197.59557,157.91818c5.53606-2.25153,11.07787-3.44386,16.49434-2.78924"/>
  <path class="cls-3" d="M246.44323,164.84896c-2.11354-3.97084-5.34968-7.63802-9.01791-10.2416"/>
  <path class="cls-3" d="M245.03913,171.4675c-2.11354-3.97084-5.30427-6.29021-8.9725-8.8938"/>
  <path class="cls-3" d="M229.77311,119.34521l-.35162,1.8106"/>
</svg>