<?xml version="1.0" encoding="UTF-8"?>
<svg id="art" xmlns="http://www.w3.org/2000/svg" viewBox="0 0 300 350">
  <defs>
    <style>
      .cls-1 {
        stroke: #000;
      }

      .cls-1, .cls-2, .cls-3 {
        stroke-linecap: round;
        stroke-linejoin: round;
        stroke-width: 7px;
      }

      .cls-1, .cls-3 {
        fill: none;
      }

      .cls-2 {
        fill: #f7ce46;
        stroke: #f7ce46;
      }

      .cls-3 {
        stroke: #3b87f7;
      }
    </style>
  </defs>
  <path class="cls-1" d="M182.33833,216.22442c12.39925,17.43676,27.80329,32.73089,45.32839,45.00496,8.00823-24.94088,10.87456-51.49439,8.41822-77.57399,3.75741.94963,7.71306,2.27724,11.12563,4.11414"/>
  <path class="cls-1" d="M236.67797,182.93145c7.49313-3.33708,15.65599-4.37839,23.5475-3.00388"/>
  <path class="cls-1" d="M236.67797,182.93145c7.23927-2.18928,14.82665-2.20121,21.88742-.03441"/>
  <path class="cls-1" d="M83.43098,180.71336s-34.96257-22.76091-56.7836-33.9509c-.92448,24.6496.38693,49.27556,3.58898,73.73378-3.62767-.69481-6.91893-2.42818-9.6717-4.89089"/>
  <path class="cls-1" d="M30.23636,220.49623c-6.63163,4.10915-19.08849,5.16422-19.08849,5.16422"/>
  <path class="cls-1" d="M30.23636,220.49623c-5.39359,4.09756-16.07346,6.03495-16.07346,6.03495"/>
  <path class="cls-1" d="M149.65064,198.28433c12.84653,24.55389,25.69307,49.10778,38.5396,73.66167-6.82642,22.4245-15.04655,44.37605-26.66962,64.73195l9.35823.2792"/>
  <path class="cls-1" d="M121.37828,205.49623c-3.98283,24.9181-14.85672,57.10616-24.52431,80.41522-11.79829-14.77681-23.87573-29.19202-36.08459-43.63147-2.66306,1.96639-4.43961,4.34782-5.58105,7.45518"/>
  <g>
    <path class="cls-3" d="M255.38318,120.56768l4.91508.57296c1.51092.17613,2.79612-1.09266,2.63942-2.60572l-1.81086-17.4858c7.39105,1.15053,14.79963,1.94204,22.19068,3.09258,2.18892,8.81499,3.58932,17.82558,4.18023,26.88901.08912,1.36701-1.01603,2.52102-2.38594,2.51844-1.41218-.00266-2.80339-.00625-4.2752-.00625"/>
    <path class="cls-3" d="M21.62303,73.61551c.59785,1.36095,2.8473,1.0151,3.60257-.26521.75527-1.28031.48539-2.89276.19211-4.35002-1.4112-7.01192-2.82239-14.02385-4.23359-21.03577,4.13656-2.17255,10.49717.65633,11.80043,5.14327.46447,1.59908.41766,3.31833.93789,4.90015.52023,1.58182,1.91914,3.10298,3.57333,2.91199"/>
    <path class="cls-3" d="M252.77586,304.62363l3.4481-.26832c2.38133-.18531,4.06064-2.40727,3.5967-4.75031-1.51735-7.66307-2.78897-15.47325-5.01994-22.90756,3.70472-.58355,7.74962.57803,9.05956,4.09222.55728,1.49505.67039,3.12673,1.22716,4.62197.55676,1.49525,1.76802,2.93731,3.36161,3.01628,1.59358.07897,3.0514-1.98062,2.01174-3.19092"/>
    <path class="cls-3" d="M264.23523,110.77416c6.59923.94112,13.19846,1.88223,19.79769,2.82335"/>
  </g>
  <path class="cls-2" d="M199.29255,223.63889c-41.61476-1.98922-82.69506-14.34029-118.50701-35.62995,22.82883-80.67037,41.23691-128.33048,64.39207-144.79184,8.1212-5.77349,17.53352-10.37029,27.49689-10.23552,6.59106.08915,13.03694,2.11528,18.97985,4.96691,23.31694,11.18833,39.36062,36.13855,39.8651,61.99592.29917,15.33362-11.14524,63.87122-32.22691,123.69449Z"/>
  <path class="cls-1" d="M163.51819,58.10574c4.79383,9.27665,10.9371,29.27552,10.9371,29.27552l15.47032-2.68752s4.30635,13.78584,6.07401,16.1884c5.75469-.38469,11.45247-1.61036,16.85632-3.62602,1.82696,4.87961,3.65393,9.75922,5.48089,14.63883"/>
  <path class="cls-1" d="M172.46114,127.93478c2.03816-.31008,4.19774.28992,5.78385,1.60693"/>
  <path class="cls-1" d="M197.50462,137.67392c2.03816-.31008,4.19774.28992,5.78385,1.60693"/>
  <path class="cls-1" d="M174.39244,147.35771c-1.18416,2.62809-2.38711,5.32965-2.56007,8.20701-.17296,2.87736.90547,6.0135,3.37646,7.49785,2.60742,1.5663,6.14682.85689,8.48406-1.08971,2.33724-1.9466,3.63773-4.88497,4.35184-7.84165"/>
</svg>