<?xml version="1.0" encoding="UTF-8"?>
<svg id="art" xmlns="http://www.w3.org/2000/svg" viewBox="0 0 300 350">
  <defs>
    <style>
      .cls-1 {
        fill: #eb4b50;
      }

      .cls-1, .cls-2 {
        stroke: #eb4b50;
      }

      .cls-1, .cls-2, .cls-3, .cls-4 {
        stroke-linecap: round;
        stroke-linejoin: round;
        stroke-width: 7px;
      }

      .cls-2, .cls-3 {
        fill: none;
      }

      .cls-3 {
        stroke: #000;
      }

      .cls-4 {
        fill: #f7ce46;
        stroke: #f7ce46;
      }
    </style>
  </defs>
  <path class="cls-3" d="M130.48402,190.71253c.46602,13.67683,3.49702,27.26196,8.88872,39.83981,1.83557,4.28206,4.95027,9.09212,9.60598,8.91961,3.97715-.14737,6.72062-3.90219,8.83517-7.27385,13.48412-21.50052,24.81317-50.16352,33.58871-74.44924"/>
  <path class="cls-3" d="M115.3756,197.2486c-3.36632,43.4699-22.60784,128.65677-22.60784,128.65677,2.11297-.40709,4.51616,1.44707,6.64183,1.79386"/>
  <path class="cls-3" d="M103.4533,185.45339c-10.51735,49.62641-25.13285,98.51836-43.67925,146.11634,1.70485,1.20145,3.88349,3.36687,5.58834,4.56832"/>
  <path class="cls-3" d="M79.33349,196.2367c-8.98069,28.32799-20.63179,57.88215-39.56463,82.06186-1.76634,2.25585-2.19428,5.16861-3.75532,7.54788"/>
  <path class="cls-3" d="M38.80879,278.2199c-4.20241,2.04618-7.85035,5.06453-10.50891,8.69519"/>
  <path class="cls-4" d="M40.32411,206.6879c34.77632,1.78069,74.65309-.10457,109.22558-4.26464,3.17382-40.16991,5.45371-79.81714,3.35201-120.05739-.59299-11.35373-1.71622-23.53192-9.01405-32.24976-8.07067-9.64106-22.15357-12.30538-34.48815-9.86732-24.52396,4.84741-44.1677,17.70377-54.95413,45.77381-4.76199,12.39235-7.08939,25.50346-8.36747,38.7176-2.68997,27.81178-5.27847,56.37938-5.75379,81.94771Z"/>
  <g>
    <path class="cls-3" d="M126.03899,138.26603c-1.60441-5.47882-.83413-10.08654,3.4439-14.3757,1.33484-1.33831,3.38144-2.56271,5.14695-1.8314,1.09808.45485,1.69168,1.53247,2.09461,2.57011,2.29764,5.91688,1.10141,10.31098-.62194,14.34988-.77185,1.80893-1.99574,3.59378-3.89036,4.12142-1.34323.37408-2.85455.08454-3.96441-.75951s-1.81689-2.73665-2.20876-4.0748Z"/>
    <path class="cls-3" d="M123.17089,111.39648c1.38712-.55079,2.77423-1.10158,4.16135-1.65237-1.05315-.97505-2.40372-1.71789-3.81106-1.99938"/>
    <path class="cls-3" d="M144.74929,111.45576c-1.32196-.69273-2.64393-1.38546-3.96589-2.07819,1.14928-.85965,2.57008-1.45729,3.99913-1.59018"/>
  </g>
  <path class="cls-3" d="M191.8992,155.08951c.91513-3.28156,2.92638-6.24726,5.63657-8.31147"/>
  <path class="cls-3" d="M191.68377,153.53746c3.19638-1.83178,6.99864-2.58473,10.6519-2.10938"/>
  <path class="cls-3" d="M192.33759,158.24784c3.19638-1.83178,6.99864-2.58473,10.6519-2.10938"/>
  <path class="cls-3" d="M193.19879,162.90523c3.07096-1.7599,6.72402-2.48331,10.23392-2.02661"/>
  <path class="cls-3" d="M190.66406,139.24863c2.62771,8.68642,5.25543,17.37285,7.88314,26.05927"/>
  <path class="cls-2" d="M239.52278,81.3781c5.2228-4.8662,10.83118-9.31846,16.75524-13.3013-2.47806,8.28559-4.95613,16.57117-7.43419,24.85676,5.55373,3.67929,11.49306,7.16945,17.61709,9.79192-4.01936,3.83856-8.42465,7.27279-13.12788,10.2341,6.4236,8.37788,12.64354,16.69228,19.55918,24.66884-6.67686-.38543-13.38063-.94637-19.79621-2.83563"/>
  <path class="cls-3" d="M137.40376,50.22418c-12.9191,20.12469-31.51513,36.56157-53.07395,46.91163,2.2658-7.98704,4.53161-15.97408,6.79741-23.96112-9.52838,6.66828-19.05676,13.33657-28.58513,20.00485"/>
  <path class="cls-1" d="M180.77876,141.62214c8.95242-2.5548,17.90484-5.10959,26.85726-7.66439,8.25455,5.05396,16.78903,9.54579,25.52085,13.72138-1.11646-23.96886-4.02275-48.81609-8.32603-72.4219-8.45836,9.24846-16.32083,19.47687-22.89012,30.1503-9.53741,2.84907-19.199,5.87829-28.73641,8.72736,1.22973,9.47186,5.077,18.2682,7.57446,27.48725Z"/>
  <path class="cls-3" d="M169.29169,120.31678c.30263,6.18004,1.48804,12.31619,3.50905,18.16427"/>
</svg>