<?xml version="1.0" encoding="UTF-8"?>
<svg id="art" xmlns="http://www.w3.org/2000/svg" viewBox="0 0 300 350">
  <defs>
    <style>
      .cls-1 {
        fill: #3b87f7;
        stroke: #3b87f7;
      }

      .cls-1, .cls-2, .cls-3, .cls-4, .cls-5 {
        stroke-linecap: round;
        stroke-linejoin: round;
        stroke-width: 7px;
      }

      .cls-2 {
        fill: #ccc;
        stroke: #ccc;
      }

      .cls-3 {
        fill: #eb4b50;
        stroke: #eb4b50;
      }

      .cls-4 {
        fill: none;
        stroke: #000;
      }

      .cls-5 {
        fill: #f7ce46;
        stroke: #f7ce46;
      }
    </style>
  </defs>
  <path class="cls-4" d="M227.10959,274.32081c1.06189-8.37258,2.32242-16.9276,6.74832-24.45083,4.42591-7.52323,12.68061-13.93472,22.49341-14.64504"/>
  <path class="cls-4" d="M257.8312,235.32396c-7.97242,2.00753-13.61706,8.37756-16.04946,15.17359-2.43239,6.79603-2.17918,14.05348-1.87732,21.15604"/>
  <path class="cls-4" d="M267.8087,235.07413c5.40704,4.36215,8.33345,10.59723,9.48045,16.87793s.66743,12.68548.18502,19.02892"/>
  <path class="cls-4" d="M266.69001,233.13382c8.57841,2.02421,14.96529,8.49161,18.13144,15.60385,3.16616,7.11224,3.59257,14.87345,3.7892,22.48179"/>
  <path class="cls-2" d="M232.83694,277.10421c-5.84896-1.26865-11.69791-2.5373-17.54687-3.80594-3.38475,12.14837-4.29096,25.16582-2.84759,37.69403,9.08212,1.53058,18.42587,3.01968,27.50799,4.55026"/>
  <path class="cls-4" d="M159.31079,212.19651c-5.02626,42.15873-5.07383,84.86553-.1415,127.03454-2.24757,0-4.99564.05424-7.24322.05424"/>
  <path class="cls-4" d="M181.23847,212.91818c8.2119,41.30901,8.26926,84.10579.16813,125.43506l7.2754.20546"/>
  <path class="cls-4" d="M115.66149,175.73384c-6.85963-20.20553-17.30167-39.18918-30.69384-55.80145-4.42928-5.49428-9.37418-10.8783-15.80465-13.78599-6.43047-2.90769-14.69271-2.78163-19.87578,2.00809-4.03512,3.72889-5.5,9.45069-6.21915,14.89768-2.0186,15.28935.41543,31.14012,6.92849,45.11936,1.78438-.70531,3.77551-.16448,5.29718,1.00427,1.52167,1.16875,2.36543,3.16367,2.14421,5.06959"/>
  <path class="cls-4" d="M49.27762,169.535c-.3626,2.38578-.71847,4.87181.01001,7.17241.72848,2.3006,2.89245,4.33943,5.29148,4.07852"/>
  <path class="cls-4" d="M48.15128,168.96692c-2.57114,1.16036-4.40444,3.80736-4.5866,6.62232-.18216,2.81496,1.29471,5.67616,3.69485,7.15821"/>
  <path class="cls-4" d="M48.15128,168.96692c-2.82083.00876-5.57553,1.67586-6.89176,4.1708s-1.13708,5.70983.4482,8.04307"/>
  <path class="cls-4" d="M220.97688,184.62129c10.94052-4.02983,21.99817-8.08889,33.56596-9.54522,3.53736-.44534,7.34027-.59398,10.44154,1.1648,3.90114,2.2124,5.6929,6.86983,6.49273,11.28275,2.6545,14.64572-2.39455,29.47031-7.36922,43.49871-3.93215-.77586-7.83431.47041-11.4909,2.11148"/>
  <path class="cls-4" d="M255.04383,240.65079c.239,1.09221,1.03096,2.04838,2.05956,2.48659,1.0286.43821,2.26679.34695,3.22003-.23734,1.35242-.82897,1.98434-2.45061,2.33522-3.99758.53491-2.35837.62572-4.81668.26624-7.20809,1.59036,1.80595,3.2421,3.88391,3.62902,6.25899.28811,1.7685.17139,3.69293-.82156,5.18446-.99295,1.49153-3.03459,2.36662-4.66451,1.62234-1.75734-.80247-2.34808-2.96039-2.73692-4.85274"/>
  <path class="cls-4" d="M265.46483,231.71905c.77404-.21687,1.62129.08418,2.24026.59705.61897.51288,1.04912,1.2136,1.44649,1.91236,1.0429,1.83392,1.96249,3.85104,1.86206,5.95837-.10043,2.10733-1.52239,4.28277-3.61003,4.58717"/>
  <path class="cls-1" d="M19.66914,255.84158c-.3852,8.64825-.21951,17.321.49575,25.94823,21.33427.60709,42.9123-.35109,64.12158-2.73559-.30401-7.02352-.52837-13.92071.25167-20.9074"/>
  <path class="cls-4" d="M20.62041,214.59264c1.13072-7.40248,4.94706-14.22268,8.7071-20.88539,2.52216-4.4692,5.11644-9.02776,9.12172-12.51208,4.00528-3.48432,9.75349-5.75827,15.18066-4.62315,4.07902.85315,7.43023,3.48161,10.06169,6.41208,9.09973,10.13373,11.10203,23.83842,12.76152,36.77923"/>
  <path class="cls-4" d="M34.99643,213.05316c.55928-10.21924,3.35698-20.29209,7.69275-29.75122,1.41209-3.08067,3.11551-6.24389,6.14409-8.16281,4.03224-2.55485,9.67972-2.27884,14.07572-.26724,4.396,2.01161,7.73466,5.49152,10.55656,9.13016,8.55798,11.03492,13.37978,24.38179,13.66821,37.83401"/>
  <path class="cls-2" d="M66.84622,215.86861c11.47276-.5094,22.98029-.23431,34.41561.82271.33257,15.24735-.73862,28.55524-2.142,43.74151-10.58806.24018-31.47655-.88426-31.47655-.88426"/>
  <path class="cls-1" d="M248.91639,275.30184c-5.95415-.23018-11.92002-.15716-17.86675.21867-.55322,14.87971-.20666,30.03831.78959,44.89494,14.70696.13677,29.65984.27872,44.3668.41549,0-3.14552.00165-6.468.00165-9.61352"/>
  <path class="cls-5" d="M247.30198,273.21662c-.03507,12.00395.48781,24.00951,1.56638,35.96496,14.9228,1.41296,30.07461.92194,44.93806-1.01821-.10201-11.7318-.20428-23.47005-.30629-35.20184-15.63967.44311-30.55848-.18801-46.19815.2551Z"/>
  <path class="cls-3" d="M228.75629,214.65599c-38.592,1.7838-77.35128-.06875-115.59723-5.52513-3.87274-37.35796-3.58496-75.6599-1.05139-113.13251,1.28547-19.01263,4.61187-40.22487,19.8764-51.63218,13.09074-9.78282,32.04549-9.05438,46.3771-1.20099,14.33161,7.8534,24.54138,21.69468,31.60514,36.43152,18.8287,39.28157,20.35128,91.52626,18.78998,135.05928Z"/>
  <path class="cls-4" d="M116.52188,93.91009c1.21192,3.85586,2.53338,7.89114,5.47801,10.65982s8.05824,3.67546,10.93065.83192c1.62295-1.60665,2.17686-3.97949,2.5563-6.23145,1.63292-9.69146,1.35062-19.7018-.82589-29.28583.55355,6.31124,1.21752,12.94082,4.82052,18.15201,3.603,5.21119,11.20018,8.23749,16.477,4.7313,2.97466-1.97651,4.5289-5.47111,5.65852-8.85921,3.2289-9.6845,4.22877-20.10473,2.90037-30.22652"/>
  <g>
    <path class="cls-4" d="M132.00023,134.34405l-.35636-1.31398"/>
    <path class="cls-4" d="M142.59735,128.04549c-.11879-.43799-.23757-.87599-.35636-1.31398"/>
    <path class="cls-4" d="M153.71193,143.12175c.5194,3.02623-.27347,6.25477-2.1356,8.69614s-4.76615,4.05965-7.82202,4.35887"/>
  </g>
  <path class="cls-5" d="M70.16649,213.9923c-21.20298-1.11246-42.44492-1.48237-63.67378-1.10884-.10271,16.86192-.19642,34.05282-.29913,50.91474,21.73859.18445,43.52605.2845,65.26464.46895-.20537-16.34803-1.08636-33.92683-1.29173-50.27486Z"/>
</svg>