<?xml version="1.0" encoding="UTF-8"?>
<svg id="art" xmlns="http://www.w3.org/2000/svg" viewBox="0 0 300 350">
  <defs>
    <style>
      .cls-1 {
        fill: #3b87f7;
        stroke: #3b87f7;
      }

      .cls-1, .cls-2, .cls-3 {
        stroke-linecap: round;
        stroke-linejoin: round;
        stroke-width: 7px;
      }

      .cls-2 {
        fill: none;
        stroke: #000;
      }

      .cls-3 {
        fill: #f7ce46;
        stroke: #f7ce46;
      }

      .cls-4 {
        fill: #5ab972;
        stroke-width: 0px;
      }
    </style>
  </defs>
  <path class="cls-2" d="M152.23534,205.24719c-3.40495,43.97087-2.9316,88.24135,1.41278,132.12936-1.52643-.03327-5.43958-.43613-5.43958-.43613"/>
  <path class="cls-2" d="M171.89727,209.27621c-.832,42.40384-1.664,84.80769-2.496,127.21153,1.61251-.16117,5.75421-.51117,7.36673-.67235"/>
  <path class="cls-2" d="M99.25254,196.31036c-.78379,2.06888-4.74454,6.63142-11.58161,4.01919,9.79273,22.41507,10.58775,47.83312,19.39352,70.65398,1.26271,3.27241,3.36713,6.98259,6.87048,7.15486,2.72837.13416,5.00591-2.02866,6.60259-4.2451,4.0466-5.61732,6.03247-12.42872,7.70542-19.14664,5.25525-21.10303,8.12667-42.79875,8.54214-64.54232"/>
  <path class="cls-2" d="M225.74451,195.47176c2.07679,1.91618,4.17622,3.84917,6.62607,5.25739s5.31588,2.26649,8.1104,1.84757c1.23869,20.14834-.18135,40.60432-3.33674,60.54256-.57172,3.6126-1.33386,7.45334-3.90545,10.05422-4.25243,4.30086-11.89076,3.19434-16.43775-.79383-4.54698-3.98817-6.72433-9.97155-8.5466-15.73869-6.58655-20.84517-10.83735-42.3768-13.72336-64.04647"/>
  <path class="cls-3" d="M106.38602,203.26667c36.8295,6.36407,74.36033,8.66095,111.69103,6.83548-.17708-35.38696.82518-71.65208-5.1421-106.53273-2.68016-15.66644-6.68648-31.51937-15.66479-44.63464-8.89332-12.99112-22.86334-22.78711-38.43517-25.1062-15.57183-2.31908-32.48015,3.46187-42.19676,15.84927-10.88389,13.87553-11.54234,32.92764-11.72737,50.56156-.34677,33.04783,1.82194,69.97943,1.47517,103.02726Z"/>
  <path class="cls-2" d="M126.03781,57.10243c-1.08154,6.72946.907,13.89147,5.30315,19.10004,1.98576,2.35273,5.27962,4.4244,7.98218,2.94969,3.55582-1.94031,2.79227-8.22973,6.49928-9.86275,3.06589-1.35059,6.21268,1.71698,7.8985,4.61212,1.68582,2.89514,3.69882,6.40834,7.04799,6.49112,3.74403.09254,5.88696-4.11866,7.18425-7.63197,1.29729-3.51331,3.68781-7.67193,7.41249-7.28072,2.2585.23722,3.93057,2.15362,5.25248,4.00013,1.32191,1.84652,2.69514,3.88821,4.84594,4.61699s5.12628-.8865,4.69092-3.1153"/>
  <path class="cls-4" d="M84.59863,186.27165c-8.69844-13.04172-12.70919-28.75696-13.89519-44.38843-1.18601-15.63146.30383-31.32844,1.79242-46.934.16334-1.71242.35392-3.50412,1.31128-4.93329,1.70877-2.5509,5.30651-3.09228,8.31473-2.47776,8.60592,1.75801,14.03434,10.31048,16.99092,18.58158,2.95657,8.2711,4.62437,17.31686,10.14501,24.14876,2.72243,3.36905,6.35518,6.16091,7.9451,10.19009,2.78045,7.04624-1.64402,14.70235-5.88475,20.97902-6.42341,9.50722-12.8979,26.09691-26.7195,24.83403Z"/>
  <g>
    <line class="cls-2" x1="155.779" y1="133.18824" x2="155.80851" y2="131.8342"/>
    <line class="cls-2" x1="171.77728" y1="133.53696" x2="171.80679" y2="132.18292"/>
    <path class="cls-2" d="M163.11464,154.0071c1.24612-.19862,2.49225-.39724,3.73837-.59586"/>
  </g>
  <path class="cls-1" d="M83.28976,157.87737c-1.07539-1.3838-3.45152-1.81955-4.44042-.38093.9715-9.55523,1.9353-19.29147.03527-28.71553-.49905-2.47487-1.2683-5.03958-3.07471-6.76845-1.80641-1.72887-5.01642-2.49121-6.76552-.72139,1.75611-7.35748,1.86115-15.05588,1.11358-22.60478-.21924-2.21462-.52947-4.48226-1.5818-6.43485-1.05213-1.95261-3.0074-3.54632-5.18099-3.52852-2.17358.01785-4.27729,2.11455-3.85332,4.29892-2.74235-12.31772-5.8488-25.33293-14.56947-34.3019-1.12263-1.15463-2.37866-2.25699-3.90138-2.72416-3.59412-1.10267-7.29281,1.74139-9.07848,5.10217-3.65093,6.87104-1.973,15.57203,1.62995,22.50998,3.60275,6.93793,8.72541,12.89542,12.79946,19.55652-1.46957-2.40271-9.40326-2.8882-11.43888-1.43984-1.40359.99863-1.45012,3.10925-1.07229,4.82215,1.16311,5.27243,4.79439,9.42705,8.55765,13.01452,3.69428,3.52151,7.35478,7.40319,11.35639,10.58546-1.36092-.97317-2.77004-1.96837-4.3908-2.325s-3.52412.08691-4.42948,1.50088c-1.00106,1.56321-.48085,3.65023.18259,5.40017,2.64681,6.98051,7.13174,13.22063,12.82328,17.93168-.96161-.07538-1.96242.18798-2.68156.83907-1.72313,1.55997-1.88009,4.36758-.99303,6.55182.88725,2.18422,2.59907,3.89138,4.26582,5.5327,7.31398,7.20209,14.69416,12.8002,23.84638,17.27624l3.17666-.99027c-.34152-6.31811-.68285-12.63629-1.02437-18.9544-.09508-1.76129-.23495-3.64844-1.31054-5.03227Z"/>
  <path class="cls-1" d="M100.51704,149.23173c5.58548-6.14901,11.27208-12.45295,14.53176-20.09379,1.22731-2.87689,2.05928-6.2913.57015-9.0418-1.48913-2.7505-6.20682-3.53575-7.56813-.7198,6.34548-7.1549,12.82681-14.53154,16.16117-23.49479,1.51429-4.07063,2.27175-8.85064.07242-12.59578-2.19933-3.74514-8.33798-5.10115-10.86224-1.56686,1.69517-8.25984.98991-16.99783-2.00802-24.87889-1.14445-3.00856-2.83913-6.11411-5.79167-7.39619-4.10035-1.78049-9.05227.87257-11.30469,4.73387-2.25242,3.8613-2.46021,8.54647-2.46822,13.0167-.00801,4.47023.09659,9.09637-1.65084,13.21092-2.03333-4.8471-4.40419-9.31343-10.72784-7.81521-3.15135.74663-5.7971,3.32591-6.62365,6.45724-2.41981,9.16725,4.09604,16.65351,8.97826,24.78112-3.2822-3.16283-9.24073-1.0114-11.45164,2.97461-2.21091,3.98601-1.76758,8.86104-1.16432,13.37905,2.43419,18.23039,6.99512,37.2869,19.85736,50.43358,3.33842-7.972,5.63894-14.98648,11.45013-21.38398Z"/>
  <path class="cls-1" d="M155.67287,115.77497c-1.37964-3.99121-5.38525-6.70386-9.55981-7.33966s-8.45361.5426-12.22314,2.44617c-7.37476,3.72418-13.24683,10.32794-16.08374,18.08728-2.10938-2.34424-6.13135-2.18188-8.61279-.23596l-14.47876,53.37006c7.39942-3.29805,20.6106-6.70264,24.00708-9.38031,1.625-1.28101,3.27539-2.58856,4.45215-4.29047,1.17676-1.70184,1.83057-3.88867,1.2395-5.87158-.59082-1.98297-2.677-3.56006-4.70068-3.12891,6.84399-.44995,13.2688-4.86713,16.83008-10.72882.95483-1.57166,1.72485-3.41547,1.33765-5.2132-.31885-1.47937-1.72607-2.74469-3.15771-2.75348,7.74512-1.41064,14.23901-5.96503,18.51538-12.64044,2.33813-3.6496,3.85059-8.22418,2.43481-12.32068Z"/>
  <path class="cls-2" d="M103.97143,80.92226c-7.31346,42.52357-12.91846,85.34094-16.79691,128.31416"/>
  <path class="cls-2" d="M82.62996,235.91965c4.15857-20.29134,6.57134-33.34822,2.10173-53.15542-7.67573-34.01521-23.98988-70.18987-42.49081-109.07054"/>
  <path class="cls-2" d="M133.9028,126.3241c-29.3359,24.12979-46.22161,62.65392-44.08511,100.57854"/>
  <path class="cls-2" d="M94.44048,190.27455c-5.72993-1.46576-11.93423-.99531-17.38451,1.29685"/>
  <path class="cls-2" d="M94.508,195.90857c-5.60442-1.43366-11.69929-.86545-16.94213,1.57946"/>
  <path class="cls-2" d="M94.17219,201.57909c-4.885-1.24962-10.19749-.75436-14.76732,1.37671"/>
  <path class="cls-1" d="M229.88112,147.23548c-1.83667-3.008-5.57886-5.16522-8.91406-4.0257-.84302-4.23889-.43848-8.61224-.57251-12.93207-.13379-4.31982-.9165-8.86157-3.69482-12.17212s-9.22095-5.05243-12.72021-2.51605c-2.42871-6.26935-4.89722-12.61322-8.80542-18.08392-3.9082-5.47076-9.47656-10.06378-16.06812-11.38824-6.59155-1.32452-14.17188,1.24799-17.48608,7.09772-3.0874,5.44934-1.92798,12.55841,1.50928,17.79395,3.4375,5.2356,8.98022,8.7373,14.4668,11.75812-2.2373.03278-3.75952,2.58417-3.52417,4.8092.23535,2.2251,1.68311,4.11279,3.13013,5.8194,6.25806,7.38025,13.57861,13.85797,21.66602,19.1709-2.38208-1.22375-5.21338,1.61584-5.03735,4.28796.17603,2.67206,2.17114,4.82666,4.09424,6.69031,5.30307,5.13914,10.9425,9.9308,16.86866,14.33686,3.19678,2.37679,14.38546,12.92361,17.83757,7.44264.79921-1.26891.94889-2.82927,1.0408-4.32608.25506-4.15368.22599-8.32464-.08511-12.47447-.27652-3.68855-1.29945-7.44594-1.13921-11.12964-.34302-3.50763-.72998-7.15076-2.56641-10.15875Z"/>
  <path class="cls-1" d="M239.35331,184.39926c9.28401-7.28757,16.79299-16.82024,21.7036-27.55278,1.32329-2.89216,2.4786-6.13525,1.61564-9.19646-.86296-3.0612-4.63451-5.41473-7.33093-3.72802,1.80642-.31531,3.02969-1.84638,4.26177-3.20452,2.74023-3.0206,4.65816-6.41727,7.01542-9.6767,2.09138-2.89179,4.64236-5.15356,3.99181-9.15288-.543-3.33814-3.33097-6.19135-6.65566-6.81141,2.0464-4.11333,4.1125-8.2822,5.06216-12.77724.94966-4.49504.67528-9.42691-1.73437-13.33854-2.40965-3.91163-7.25948-6.48037-11.71259-5.35028-2.94606.74763-5.36072,2.96081-6.93396,5.56141-1.57324,2.6006-2.39998,5.57829-3.06758,8.54351-1.50831,6.6994-2.29639,13.5607-2.34628,20.42761-1.91379-2.67783-5.80807-3.81819-8.70848-2.26223-2.90041,1.55596-4.33234,5.3943-3.15972,8.46975"/>
  <path class="cls-1" d="M208.40753,102.04817c-.90826-1.71945-1.82867-3.47326-2.17577-5.38663s-.03631-4.04676,1.27504-5.48265,3.75667-1.87489,5.24162-.61935c-3.38738-3.7437-6.35167-7.86994-8.81838-12.27504-1.07466-1.91914-2.08309-4.13452-1.47376-6.24798s3.69061-3.4296,5.07957-1.72408c-.34541-3.91797-1.46437-8.03642-2.45006-11.84408-.98568-3.80766-1.4805-7.96082.04352-11.58672s5.63253-6.39431,9.39594-5.25124c2.57277.78144,4.35541,3.09002,5.76003,5.38281,4.01392,6.55202,6.40212,14.09171,6.89246,21.75983,1.23716-3.48827,6.53806-3.91645,9.28602-1.43707,2.74796,2.47937,3.36579,6.56623,3.10944,10.25851-.51602,7.4322-3.80523,14.35061-7.0378,21.06287,4.94341.63418,10.95051.10709,13.76032,5.09887,1.7532,3.11464,1.83538,6.88098,1.58872,10.44663-1.04527,15.1226.29807,30.04296-2.75955,45.11308-.71146,3.50657-2.61139,7.76653-4.53699,10.78412-1.06574,1.67012-2.7122,3.07554-4.6693,3.38355-1.94758.30651-3.93894-.51668-5.45501-1.77705-1.51607-1.26038-2.63399-2.92449-3.70646-4.57883-5.10092-7.86848-10.06744-15.9866-13.91265-24.51456-2.81442-6.24186-3.79187-13.8291-1.47681-20.3871,1.53411-4.34578,3.40026-5.06278,2.32128-9.46722-.87087-3.55492-3.57189-7.47428-5.28142-10.71065Z"/>
  <path class="cls-2" d="M180.90251,106.31758c14.42162,16.26971,28.76579,32.87864,39.17321,51.96718,10.40742,19.08853,16.71015,41.07138,13.86478,62.62574"/>
  <path class="cls-2" d="M215.34076,61.4794c16.9686,62.49005,24.42695,127.55325,22.03948,192.26213"/>
  <path class="cls-2" d="M257.09416,114.15314c-12.17545,24.85363-18.55485,52.52431-18.48989,80.19994"/>
  <path class="cls-2" d="M233.55779,196.47663c2.93289-1.57782,6.70662-1.45699,9.53258.30521"/>
  <path class="cls-2" d="M235.84058,202.09884c2.45977-1.32329,5.62474-1.22196,7.99482.25597"/>
  <path class="cls-2" d="M231.59021,191.18445c3.20782-1.98114,7.48058-2.09949,10.79314-.29894"/>
</svg>