<?xml version="1.0" encoding="UTF-8"?>
<svg id="art" xmlns="http://www.w3.org/2000/svg" viewBox="0 0 300 350">
  <defs>
    <style>
      .cls-1 {
        fill: #3b87f7;
        stroke: #3b87f7;
      }

      .cls-1, .cls-2, .cls-3, .cls-4, .cls-5 {
        stroke-linecap: round;
        stroke-linejoin: round;
        stroke-width: 7px;
      }

      .cls-2 {
        fill: #eb4b50;
        stroke: #eb4b50;
      }

      .cls-3 {
        stroke: #000;
      }

      .cls-3, .cls-4 {
        fill: none;
      }

      .cls-4, .cls-5 {
        stroke: #f7ce46;
      }

      .cls-5 {
        fill: #f7ce46;
      }
    </style>
  </defs>
  <path class="cls-2" d="M194.47803,53.4108c2.92858,1.1872,6.14494,1.46231,9.23088.78189,7.07821-1.56068,14.06401-3.54049,20.90835-5.92625,1.9862-.69234,4.00634-1.44489,5.61026-2.80569s2.7343-3.46634,2.3814-5.53993c-.33341-1.95906-1.92764-3.52119-3.74372-4.32801s-3.84266-.97843-5.82705-1.08478c-15.00752-.80426-29.98008,3.49223-44.04384,8.79157-3.16937-8.41451-12.05369-16.42461-20.83849-18.34196s-18.45816.89525-24.84536,7.22397c-6.3872,6.32872-9.28865,15.9758-7.45218,24.77787,11.78378-5.79081,29.20523-9.49952,41.32847-9.49952,10.0547,0,19.93275,2.9678,27.29128,5.95083Z"/>
  <path class="cls-4" d="M186.56656,127.11159c3.83163-.0341,7.69252.27165,11.47234.96149,6.62113,1.20839,12.9935,3.59536,18.52411,7.39871,8.68787,5.97458,15.05716,15.69408,15.68441,26.21935.50456,8.46636-6.94527,38.45311-28.95416,52.56515"/>
  <path class="cls-3" d="M232.27702,159.35223c-1.44922-.12959-2.9784.19331-4.11336,1.10379-2.4475,1.96343-2.59666,6.10857-1.14413,8.66789,1.17141,2.06399,3.40574,3.48527,5.77166,3.67143"/>
  <path class="cls-3" d="M239.49501,161.15032c2.80805,23.18354,6.08767,48.91207,2.8153,72.04063-.7319,5.104-1.79585,10.29011-4.48145,14.68733-2.69584,4.40698-7.3011,7.92818-12.45631,8.08531"/>
  <path class="cls-3" d="M239.49501,161.15032c-1.93452-1.81772-4.20292-3.54577-6.85027-3.74066-1.23957-.09126-2.74025.38728-3.02226,1.59779-.1502.64473.11024,1.33512.54941,1.83045s1.03684.82207,1.6457,1.08191c2.26092.96491,4.85922,1.11612,7.21681.41999-1.84453.09733-3.7103.20424-5.47563.7477s-3.44741,1.57558-4.40823,3.1531c-.29446.48346-.51671,1.09705-.26282,1.603.30203.60189,1.09366.72913,1.76674.75062,2.81587.08992,5.6481-.36323,8.29534-1.32724"/>
  <path class="cls-5" d="M114.92959,203.57062c-10.68866,2.5789-22.51124,5.03435-32.22161-.12383-5.69367-3.02449-9.83637-8.31414-13.20508-13.81115-6.60525-10.77833-10.90057-22.9645-12.5137-35.50243-1.29396-10.05719-.8401-20.48417,2.60415-30.02139,3.44425-9.53722,10.07096-18.12546,19.07718-22.78479,11.18904-5.7886,24.49421-5.03647,37.0593-4.13041"/>
  <path class="cls-3" d="M225.37255,255.96359c-7.01.37-13.09-5.59-15.25-12.26-2.05-6.35-1.4-13.2-.58-19.84"/>
  <path class="cls-3" d="M128.26364,211.13002c-1.53195,11.16063-.98364,25.27286,2.12178,36.10165,1.10759,3.86224,3.31168,8.29949,7.31887,8.59282"/>
  <path class="cls-3" d="M184.50255,220.32359c6.26513,16.55,12.13869,33.34,15.80786,50.96,4.49581,21.57,5.5255,44.72-.23929,65.83,1.37775,0,4.30728-.02,5.68503-.02"/>
  <path class="cls-3" d="M114.81255,313.06359c-1.29-1.59-4.17-6.7-4.15-8.75,14.03-1.61,26.7-10.18,35.17-21.48,8.48-11.3,13.07-25.12,15.26-39.07,1.4-8.94,1.87-17.98,2-27.03"/>
  <path class="cls-1" d="M221.36238,226.11229c-34.51995-5.64107-70.50976-11.28214-105.02971-16.92321-1.72149-47.53292-3.14144-86.80132,3.10957-128.33999,1.49364-9.92541,6.16161-19.55269,13.32817-26.58014,12.8326-12.58351,34.4856-12.6558,50.06615-3.69663,15.58055,8.95918,26.94158,24.69272,32.34252,41.83478,10.45597,33.18623,9.22333,84.87627,6.18329,133.70518Z"/>
  <path class="cls-3" d="M141.15817,54.07461c5.97918,10.08271,15.86137,16.58506,27.10018,19.91684,2.95584.87627,6.36325,1.39985,8.94841-.27996,2.03802-1.32429,3.10482-3.79939,3.27524-6.22389s-.43702-4.83226-1.12503-7.16333c-.48769-1.65235-1.08419-3.39068-2.43022-4.46599-1.34603-1.0753-3.673-1.0841-4.52889.41107-.77564,1.35498.00332,3.04811.84473,4.36325,2.3933,3.74077,5.37406,7.10487,8.79947,9.93114,2.37021,1.95564,5.02186,3.6854,8.01297,4.38945s6.37773.24701,8.70124-1.76388c.80816-.69943,1.44287-1.60507,1.85692-2.5975"/>
  <path class="cls-3" d="M187.59734,99.42695v-.41104"/>
  <path class="cls-3" d="M201.8261,100.42695v-.41104"/>
  <path class="cls-3" d="M183.63158,114.52766c-1.62196,1.9691-3.24392,3.9382-4.86588,5.90729"/>
  <path class="cls-3" d="M181.19887,118.67738c2.22314,3.52609,5.88182,6.11694,9.94603,7.04317,4.06421.92622,8.4842.17648,12.01564-2.03815"/>
  <path class="cls-4" d="M93.93574,117.41905c3.83163-.0341,7.69252.27165,11.47234.96149,6.62113,1.20839,12.9935,3.59536,18.52411,7.39871,8.68787,5.97458,15.05716,15.69408,15.68441,26.21935.50456,8.46636-6.94527,38.45311-28.95416,52.56515"/>
  <path class="cls-3" d="M137.70429,255.82449c2.24727.03191,4.31902-1.40599,5.5956-3.25575,1.27658-1.84975,1.88407-4.07102,2.37827-6.26352,3.39863-15.07773,2.42596-30.78744.57886-46.13269-1.75305-14.56383-4.27743-29.03479-7.55903-43.33197-3.2189-1.49454-6.65495-4.93484-6.6436-8.48376.00193-.60437.09026-1.26756.53427-1.67758.39639-.36605.97439-.43675,1.51133-.48977,1.60661-.15864,3.21322-.31729,4.81983-.47593,2.73062-.26964,5.95266-.34615,7.66916,1.79456,1.35464,1.68943,1.14811,4.27847-.08398,6.05925-1.23209,1.78078-3.28291,2.84519-5.3767,3.39771-1.42626.37637-2.95324.54334-4.36812.12622s-2.69327-1.50905-3.01982-2.94754c-.49022-2.15946,1.32893-4.29907,3.43847-4.97246,2.10954-.67338,4.39345-.26917,6.56965.1404,1.07111.9646.39968,2.90899-.87904,3.57429s-2.81771.44795-4.24.2138"/>
  <path class="cls-3" d="M90.94611,99.52505c3.94955,13.07787,3.01036,27.57114-2.594,40.0299-5.60437,12.45876-15.826,22.77648-28.23177,28.49717"/>
  <path class="cls-3" d="M83.82363,149.05671c3.34156,18.40572,8.46724,36.4871,15.28184,53.90829"/>
  <path class="cls-3" d="M91.2641,184.77521c-7.2548.3274-14.5096.6548-21.7644.98221"/>
</svg>