<?xml version="1.0" encoding="UTF-8"?>
<svg id="art" xmlns="http://www.w3.org/2000/svg" viewBox="0 0 300 350">
  <defs>
    <style>
      .cls-1 {
        fill: #3b87f7;
        stroke: #3b87f7;
      }

      .cls-1, .cls-2, .cls-3 {
        stroke-linecap: round;
        stroke-linejoin: round;
        stroke-width: 7px;
      }

      .cls-2 {
        stroke: #000;
      }

      .cls-2, .cls-3 {
        fill: none;
      }

      .cls-3 {
        stroke: #ccc;
      }
    </style>
  </defs>
  <path class="cls-2" d="M197.81278,134.44327c1.15713,5.25381,3.99463,10.12415,7.9943,13.72173,2.84449-9.35648,4.24166-19.45126,3.02171-30.28979"/>
  <path class="cls-2" d="M205.80707,148.16501c4.76957-7.76855,8.23074-16.68573,9.20434-27.10519"/>
  <path class="cls-2" d="M205.80707,148.16501c6.76069-5.39544,11.47794-12.47334,13.52293-21.22669"/>
  <path class="cls-2" d="M166.09374,198.58962c.25707,12.29789,2.51922,24.55164,6.67006,36.13071.95493,2.66386,2.03064,5.33098,3.75764,7.57275,1.727,2.24176,4.19768,4.03958,7.00491,4.39665,3.50884.44632,7.00175-1.44036,9.32139-4.11064,2.31964-2.67028,3.6569-6.03878,4.8135-9.38144,8.41688-24.32537,8.14585-58.12064,8.14585-85.03265"/>
  <path class="cls-2" d="M141.64312,196.66503c-4.05372,47.20947-11.83866,94.09805-23.25831,140.08455l5.64776.38693"/>
  <path class="cls-2" d="M114.29307,199.24836c-5.72667,18.98966-11.45334,37.97931-17.18,56.96897-8.13421,26.97306-16.26841,53.94612-24.40262,80.91918-2.40397-.0389-5.63167-1.57414-6.80648-3.27925"/>
  <path class="cls-2" d="M87.49904,192.77035c-12.63393,30.62995-22.55002,62.38033-29.59371,94.75619-.16105,4.51813.97776,7.92324.3613,11.66642"/>
  <path class="cls-2" d="M57.90533,287.52653c-2.32666,4.85145-4.45595,11.52925-4.50951,16.90949"/>
  <path class="cls-2" d="M55.35392,287.52653c-3.05136,3.68822-6.32488,8.99557-7.52751,13.62887"/>
  <path class="cls-1" d="M176.74176,210.46006c2.21878-44.60319,4.43758-89.20627,6.65634-133.80939.46855-9.41918.81959-19.38704-3.68372-27.67322-7.25204-13.3439-24.78879-17.68534-39.84301-15.67956-15.94882,2.12498-30.6609,9.84461-42.66945,20.37397-13.83988,12.13511-18.05789,28.53425-23.93475,45.59374-12.71146,36.89909-21.98384,74.98304-27.63887,113.59872,41.60344,3.16077,84.94913,5.33066,131.11347-2.40425Z"/>
  <path class="cls-1" d="M179.57558,105.69676c3.20845-2.14881,6.7006-3.87346,10.3571-5.11503,3.05096-1.03596,6.60561-1.68071,9.3447.01605,3.54534,2.1962,3.99795,7.33315,2.60343,11.26355-1.61893,4.56293-5.10043,8.29616-9.15087,10.94855-4.05044,2.6524-8.6638,4.31529-13.30374,5.69813"/>
  <path class="cls-2" d="M161.9682,40.20693c-5.52767,12.00084-13.91174,22.67446-24.26183,30.88732-3.17374,2.51838-6.58741,4.83811-10.43614,6.10386-3.84873,1.26575-8.20636,1.38688-11.84724-.39043-3.64088-1.77731-6.35223-5.67651-6.05264-9.71694.29111-3.92613,3.19625-7.18617,6.41791-9.44896,2.27829-1.6002,5.13594-2.90526,7.78375-2.04483,2.3591.76661,3.92629,3.14168,4.35169,5.58546s-.10835,4.95162-.82522,7.32631c-1.23244,4.08256-3.06955,8.07785-6.03567,11.14189s-7.1909,5.0983-11.43842,4.71777-8.30706-3.5297-9.05149-7.72876c-.48372,3.34514-2.02902,6.54741-4.54621,8.803-2.51719,2.25559-5.84054,3.59211-9.2185,3.70733-1.75693.05993-3.65208-.26262-4.90363-1.49713"/>
  <g>
    <path class="cls-2" d="M137.39089,91.91569c1.04701-2.62953,2.93422-4.91707,5.31687-6.44469"/>
    <path class="cls-2" d="M161.96946,67.33112c2.7495-.59971,5.71493-.14785,8.16104,1.24353"/>
    <line class="cls-2" x1="147.46995" y1="111.80002" x2="147.46995" y2="110.67969"/>
    <line class="cls-2" x1="162.43305" y1="110.44552" x2="162.43305" y2="109.32518"/>
    <path class="cls-2" d="M153.24069,139.58776c6.53806.32948,12.95705-3.36889,13.66226-7.87164"/>
  </g>
  <path class="cls-2" d="M193.95635,110.48295c-1.3187,1.31654-2.6374,2.63309-3.9561,3.94963"/>
  <g>
    <path class="cls-3" d="M254.37171,87.11171l-2.27937-2.22161"/>
    <path class="cls-3" d="M245.8379,106.33955h-3.37629"/>
    <path class="cls-3" d="M253.71592,122.6583c-1.12543.75029-2.25086,1.50058-3.37629,2.25086"/>
  </g>
</svg>