<?xml version="1.0" encoding="UTF-8"?>
<svg id="art" xmlns="http://www.w3.org/2000/svg" viewBox="0 0 300 350">
  <defs>
    <style>
      .cls-1 {
        fill: #eb4b50;
        stroke: #eb4b50;
      }

      .cls-1, .cls-2, .cls-3 {
        stroke-linecap: round;
        stroke-linejoin: round;
        stroke-width: 7px;
      }

      .cls-2 {
        fill: none;
        stroke: #000;
      }

      .cls-3 {
        fill: #f7ce46;
        stroke: #f7ce46;
      }
    </style>
  </defs>
  <path class="cls-2" d="M77.67585,222.89447c-4.01677,6.57466-10.60552,11.53042-18.03631,13.56609-3.41051.93431-7.54839,1.07881-9.97031-1.49779"/>
  <path class="cls-2" d="M187.95976,214.20472c8.09102-3.47375,15.31398-8.65472,22.44136-13.82503,9.07681-6.58446,18.18177-13.27688,25.76227-21.54003,7.58051-8.26315,13.62393-18.29151,15.43228-29.35829.5405-3.30774.58497-7.04482-1.57566-9.60704-2.0977-2.48759-5.80514-3.12876-8.9606-2.33408-3.15545.79468-5.86633,2.78125-8.36604,4.86452-7.93566,6.61364-16.56858,18.25066-16.9975,28.93201"/>
  <path class="cls-2" d="M119.24922,221.57304c.98705,39.9649-.97563,80.00234-5.86681,119.67908-2.96073-2.16844-6.97141-7.25943-6.97141-7.25943"/>
  <path class="cls-2" d="M141.79988,217.84027c.88521,38.98088,3.4368,82.24477,7.64548,121.00789l6.43402-8.64645"/>
  <path class="cls-1" d="M67.2843,222.22034c41.41319.77552,82.87424-1.01382,124.06663-5.35438-2.61508-20.74499-4.93752-41.53323-7.55259-62.27822-3.08775-24.49462-6.22201-49.19376-14.2597-72.53719-3.64264-10.57911-8.60989-21.2534-17.45916-28.10008-8.1871-6.33436-18.77844-8.65872-29.0873-9.59678-11.00531-1.00143-22.63283-.4904-32.27037,4.91678-8.93279,5.01177-15.24663,13.77056-19.45241,23.10994-6.77007,15.03369-8.6871,31.72758-8.73748,48.21524-.10421,34.10091,1.26701,62.61692,4.75239,101.62469Z"/>
  <path class="cls-2" d="M142.94088,55.92643c.63158,3.6466,1.23213,7.29857,1.80157,10.95539.54591,3.5057.75764,7.79132-2.13341,9.84796-1.74358,1.24034-4.1607,1.18429-6.13606.36181s-3.59508-2.30353-5.11263-3.81202c-5.96512-5.9295-11.04472-12.7483-15.01878-20.16103.41678,4.80786,2.51953,8.82059,4.25261,13.32456,1.73307,4.50397,3.3317,9.21402,3.07697,14.03319-.25472,4.81917-2.7671,9.8105-7.2179,11.67587-5.14776,2.15748-11.13701-.41762-15.33997-4.09039-6.53519-5.7108-10.55494-14.20342-10.82864-22.87793-.05105-1.61805.32929-3.65215,1.8962-4.05893,1.81024-.46995,3.13253,1.67173,3.70101,3.45348,1.39324,4.36682,2.28573,9.03721,1.38116,13.53076-.90457,4.49355-3.91052,8.77499-8.27914,10.16257-4.36862,1.38757-9.87822-.96449-11.04164-5.39807"/>
  <path class="cls-2" d="M138.91536,116.32283v-.17857"/>
  <path class="cls-2" d="M152.32092,116.32283v-.17857"/>
  <path class="cls-2" d="M129.02498,94.6933c.92555-2.87777,4.02156-4.88833,7.02699-4.56334"/>
  <path class="cls-2" d="M152.78762,90.35683c2.35778-.68777,5.11048.35224,6.42444,2.42726"/>
  <path class="cls-2" d="M147.10249,127.1045c1.07625.13639,1.99445.90947,2.54145,1.84633s.77216,2.02497.91696,3.10011c.28207,2.09443.29012,4.21492.29771,6.32824.00441,1.23068.00617,2.48129-.33695,3.66317-.61365,2.11375-3.44373,4.37139-5.38796,2.16077-.42189-.47975-.6515-1.09545-.84734-1.70356-.89952-2.79311-3.62827-16.21091,2.81613-15.39507Z"/>
  <path class="cls-2" d="M217.37162,172.12761c2.11367-.49176,4.27231-1.36256,5.5671-3.1041,1.29479-1.74153,1.34712-4.53509-.37042-5.86153-.21963.21158-.43926.42316-.65888.63475"/>
  <path class="cls-2" d="M215.1672,170.95891c2.00738,1.43371,4.70268,1.85312,7.05078,1.09714,2.34811-.75597,4.29244-2.66911,5.08629-5.00468-.74479-.16961-1.48958-.33921-2.23437-.50882"/>
  <path class="cls-2" d="M215.22119,173.95319c1.55115.65509,3.11977,1.31538,4.78021,1.59492s3.44651.14688,4.89791-.70673,2.48351-2.52288,2.27374-4.19357"/>
  <line class="cls-2" x1="207.15788" y1="126.5945" x2="204.78162" y2="124.14475"/>
  <path class="cls-2" d="M197.87877,140.09017c-1.31982-.29593-2.63963-.59187-3.95945-.8878"/>
  <path class="cls-2" d="M193.92829,153.79552l-3.13507.20864"/>
  <line class="cls-2" x1="217.89442" y1="149.88081" x2="225.69665" y2="153.79552"/>
  <path class="cls-2" d="M49.66923,234.96277c-1.59114-1.69276-2.03191-4.22882-1.64579-6.51969s1.49811-4.39034,2.68989-6.38454c12.79744-21.41377,35.94815-35.06818,48.78363-56.45916-2.33982-2.42596-4.30499-6.25879-5.13634-9.52512"/>
  <path class="cls-2" d="M99.38006,165.29571c-.09164-6.66267,1.4957-13.34188,4.57505-19.25096"/>
  <path class="cls-2" d="M99.49696,165.59938c1.96526-6.31049,6.48274-11.91178,11.00536-16.73157"/>
  <path class="cls-2" d="M99.74889,166.29981c3.90086-4.05283,8.28693-7.63822,13.0346-10.65513"/>
  <path class="cls-3" d="M223.15198,138.1843c-3.12926,8.13922-7.17958,15.92392-12.04885,23.15782-3.00047-.08296-6.00399-1.13859-8.38991-2.95987,3.41664-8.96164,7.89022-17.50735,13.73705-25.10992,2.76025.20263,4.48772,3.25117,6.70171,4.91198Z"/>
</svg>