<?xml version="1.0" encoding="UTF-8"?>
<svg id="art" xmlns="http://www.w3.org/2000/svg" viewBox="0 0 300 350">
  <defs>
    <style>
      .cls-1 {
        stroke: #000;
      }

      .cls-1, .cls-2, .cls-3 {
        stroke-linecap: round;
        stroke-linejoin: round;
        stroke-width: 7px;
      }

      .cls-1, .cls-3 {
        fill: none;
      }

      .cls-2 {
        fill: #f7ce46;
        stroke: #f7ce46;
      }

      .cls-3 {
        stroke: #ccc;
      }
    </style>
  </defs>
  <path class="cls-1" d="M114.3137,208.0436c1.64,43.5,1.24,87.07-1.18,130.54,2.68,0,4.86-.03,7.54-.03"/>
  <path class="cls-1" d="M95.5337,210.0036c1.69,42.69,3.26,85.5,2.27,128.22-2.93.85-7.5,1.62-7.5,1.62"/>
  <path class="cls-1" d="M69.1337,212.7836c1.5,25.8,1.97,48.63,3.62,74.88,2.83,3.73,4.71,7.9,5.41,10.68"/>
  <path class="cls-1" d="M71.60849,307.87096c-.19856-10.52346.16344-17.19799,1.14566-20.21098-3.25727,3.33374-4.9363,12.64178-4.9363,16.16565"/>
  <path class="cls-1" d="M206.8037,166.0236c6.91,17.18,7.45,36.26,5.93,54.72-.67,8.15-1.78,16.46-5.39,23.8-3.62,7.34-10.16,13.67-18.22,15.1-6.63,1.17-13.56-1.1-18.98-5.11-5.41-4-9.46-9.59-12.71-15.49-5.83-10.57-9.33-22.41-10.23-34.45"/>
  <g>
    <path class="cls-1" d="M206.8,166.02632c-3.54617-2.27329-7.28798-4.32357-11.2359-5.79228"/>
    <path class="cls-1" d="M212.86636,139.16848c-2.96506,8.63007-5.88416,17.73443-6.06636,26.85784,2.51418-7.60764,6.79111-15.0004,11.87811-21.1907"/>
    <path class="cls-1" d="M219.46529,155.52069c-4.69998,2.81991-9.53723,6.00485-12.66529,10.50563"/>
  </g>
  <path class="cls-2" d="M174.16423,201.68938c-1.37981-33.16295-8.16963-66.09476-20.01967-97.09898-7.03596-18.40876-16.09232-36.48917-30.06953-50.38251-13.97721-13.89333-33.54882-23.1734-53.15097-21.138-8.80595.91437-17.86397,4.45909-22.9045,11.7374-5.23682,7.56175-5.16992,17.4618-4.90517,26.65605,1.37913,47.89377,2.75825,95.78753,4.13737,143.6813,41.47468-4.56501,85.43779-8.89025,126.91247-13.45526Z"/>
  <path class="cls-1" d="M58.7537,65.2536c-3.13,5.11-6.39,10.35-11.2,13.92-1.27.93-2.67,1.73-4.15,2.34"/>
  <path class="cls-1" d="M72.8537,76.8936c-.88-2.41-.94-5.39-.77-8,.2-3.19.48-6.56,2.3-9.19,1.81-2.64,5.72-4.12,8.32-2.25,2.03,1.46,2.5,4.41,1.77,6.8-.72,2.39-2.4,4.36-4.04,6.24-1.68,1.94-4.5,4.5-7.58,6.4-5.44,3.36-11.68,4.67-13.82-3.15-.75-2.75-.52-5.65-.28-8.49"/>
  <path class="cls-1" d="M109.8637,42.9636c-6.36,11.56-13.16,22.88-21.81,32.8-3.02,3.46-7.55,7.03-11.74,5.14-1.75-.79-2.82-2.25-3.46-4.01"/>
  <g>
    <path class="cls-1" d="M104.32334,86.66668v-.40145"/>
    <path class="cls-1" d="M115.25068,89.94488v-.40145"/>
    <path class="cls-1" d="M94.78376,101.94599c.5151,6.01929,2.01908,11.95283,4.43339,17.49073,1.42532,3.26939,3.26788,6.51734,6.20012,8.5477,3.6683,2.54003,8.78983,2.72231,12.69639.56662,3.90656-2.15569,6.46566-6.50303,6.59215-10.9631"/>
  </g>
  <g>
    <path class="cls-3" d="M226.88534,188.72833c10.27651.53527,20.43962,2.94327,29.89887,6.99229"/>
    <path class="cls-3" d="M228.98406,169.87427c6.03347-.39684,12.17619,1.05844,17.39034,4.11997"/>
  </g>
</svg>