<?xml version="1.0" encoding="UTF-8"?>
<svg id="art" xmlns="http://www.w3.org/2000/svg" viewBox="0 0 300 350">
  <defs>
    <style>
      .cls-1 {
        fill: #eb4b50;
      }

      .cls-1, .cls-2 {
        stroke: #eb4b50;
      }

      .cls-1, .cls-2, .cls-3 {
        stroke-linecap: round;
        stroke-linejoin: round;
        stroke-width: 7px;
      }

      .cls-2, .cls-3 {
        fill: none;
      }

      .cls-3 {
        stroke: #000;
      }
    </style>
  </defs>
  <path class="cls-3" d="M181.55301,194.20056c.06457,11.62835,2.81131,23.45886,9.32151,33.09422,6.5102,9.63535,17.06051,16.83253,28.64625,17.82924,11.58574.9967,23.86439-4.91049,29.06545-15.31106,3.42362-6.84622,3.65768-14.83711,3.0678-22.46889-1.37757-17.82281-6.92512-35.31006-16.07352-50.6677-4.73371-7.9466-7.85065-16.9172-8.85465-26.11222"/>
  <path class="cls-3" d="M236.10525,154.18577c-.86219-8.51255-.09058-17.18763,2.26048-25.41438"/>
  <path class="cls-3" d="M236.30769,156.95775c1.11045-3.45599,3.75512-6.38753,7.07891-7.84676"/>
  <path class="cls-3" d="M246.74761,149.61047c1.70816.4993,3.10803,1.93988,3.55817,3.66165.45014,1.72177-.06554,3.66315-1.31075,4.93459"/>
  <path class="cls-3" d="M249.26895,150.11953c3.93927-1.07729,8.46181,2.08126,8.80667,6.15059"/>
  <path class="cls-3" d="M42.076,156.17642c-1.62834,23.38545-3.01664,48.06385,7.43254,69.04826,1.93484,3.88561,4.3038,7.63975,7.5948,10.4701,3.291,2.83035,7.6123,4.66361,11.93481,4.26681,6.77532-.62197,11.91445-6.33104,15.48875-12.12035,6.82794-11.05923,10.6278-23.96761,10.88068-36.96235"/>
  <path class="cls-3" d="M42.076,156.17642c-.28301-9.19423-3.2997-17.54341-7.74402-25.5971"/>
  <path class="cls-3" d="M42.07604,156.1764c2.75395-8.32388,3.72063-17.14104,4.47278-26.36611"/>
  <path class="cls-3" d="M40.95143,162.41914c-1.07113-3.88432-3.9339-8.73533-6.73828-10.40647"/>
  <path class="cls-3" d="M32.2228,164.28994c-2.7843-1.76523-4.7938-4.70899-5.42351-7.94501"/>
  <path class="cls-3" d="M23.58651,166.56102c-2.40178-3.68069-2.1088-8.91029.68907-12.29968.76739-.92963,1.96563-1.78252,3.09647-1.36501"/>
  <path class="cls-3" d="M125.42156,196.53386c-19.60644,27.53011-25.47856,64.36267-15.40463,96.62465,4.60777,14.75649,12.28031,28.41132,16.90126,43.16369l-6.8215.11913"/>
  <path class="cls-3" d="M148.01346,193.02037c3.16748,9.95209,6.33495,19.90418,9.50243,29.85628,3.76646,11.83407,7.55972,23.80317,8.4598,36.1895,1.96266,27.00876-9.87799,52.88817-21.44136,77.37518h7.67039"/>
  <path class="cls-1" d="M191.84333,207.75632c-39.68565.68797-79.47404-4.92406-117.42117-16.5619,2.4673-38.27564,8.91237-75.5611,17.99025-112.82643,3.15476-12.95053,7.24742-26.41997,16.99844-36.05144,8.66067-8.55449,21.59266-11.79572,33.46394-11.66481,11.92361.13149,23.92087,3.21412,33.9757,9.62428,26.96006,17.18761,28.44256,52.24544,26.72965,81.00203-1.68061,28.2144-6.81717,58.64529-11.73681,86.47826Z"/>
  <g>
    <line class="cls-3" x1="146.52393" y1="122.62132" x2="146.52393" y2="122.27342"/>
    <line class="cls-3" x1="134.95095" y1="119.31476" x2="134.95095" y2="118.96685"/>
    <path class="cls-3" d="M113.79297,117.67968c-1.02406,8.77793-.12892,18.00561,4.08142,25.77566,4.21034,7.77006,12.0943,13.83567,20.91261,14.41718,8.54106.56323,16.93202-4.09622,22.07526-10.93829,5.14324-6.84207,7.30118-15.58973,7.34385-24.14923"/>
  </g>
  <path class="cls-3" d="M189.443,63.7681c-4.24518,9.96667-12.31892,18.24514-22.17619,22.73851-9.85726,4.49337-21.40183,5.15778-31.70951,1.82494-2.66549-.86185-5.40219-2.10428-6.93028-4.45217-2.93265-4.50598-.07383-10.51484,3.37535-14.63884,1.52586-1.8244,3.2312-3.5898,5.39717-4.57226,2.16597-.98246,4.89162-1.03692,6.77932.40989,2.18468,1.67443,2.65123,4.96802,1.59464,7.5097s-3.33184,4.39816-5.78055,5.65527c-5.32556,2.73401-11.85592,3.00242-17.38788.71468-5.53196-2.28774-9.96527-7.09018-11.80423-12.78708"/>
  <g>
    <path class="cls-2" d="M44.13529,93.50861c-9.08949-3.79681-17.20125-9.91338-23.33402-17.62453-1.12124-1.40981-1.84488-3.13291-1.80896-4.93386.10021-5.02504,5.25465-5.84646,8.51963-4.04102,2.44444,1.35171,4.07846,3.77028,5.61892,6.10038.1013-3.76983,1.99766-7.50657,4.7881-10.36951,3.62127-3.71535,9.9233-1.84366,11.0944,3.21064,2.08291,8.98949-1.10282,18.54509-4.87808,27.65789Z"/>
    <path class="cls-2" d="M259.44275,131.71524c-2.35937-5.88564-4.14728-12.00021-5.33043-18.22978-.33964-1.78828-.62941-3.63183-.28521-5.41924s1.44385-3.53126,3.14877-4.1689c2.28385-.85415,4.9148.56253,6.2457,2.60563s1.67252,4.55459,1.98118,6.97333c2.24707-1.97008,5.88826-3.63899,8.82644-4.18452s6.4998,1.08053,6.93357,4.03728c.34736,2.36776-1.32578,4.51352-2.94475,6.27586-5.23832,5.70222-12.33963,7.51989-18.57527,12.11033Z"/>
    <path class="cls-2" d="M214.6856,47.27769c-4.94898-5.34804-8.92523-11.61612-11.48799-18.43713-1.03706-2.76025-1.61431-6.40187.72156-8.20136,1.8697-1.44037,4.73556-.73944,6.42541.90825,1.68984,1.64769,2.49147,3.97773,3.23756,6.21688,1.3876-2.92235,3.26031-5.75183,5.63529-7.94842,1.57536-1.45703,3.66752-2.78485,5.7409-2.23189,2.08543.55617,3.27972,2.89922,3.23992,5.05717-.03981,2.15795-1.02141,4.17227-1.98214,6.10497-2.92824,5.89076-8.60227,12.64077-11.53051,18.53153Z"/>
  </g>
</svg>